<svg xmlns="http://www.w3.org/2000/svg" xmlns:xlink="http://www.w3.org/1999/xlink" viewBox="0 0 198.08 148.49"><defs><style>.cls-1{fill:url(#linear-gradient);}.cls-2{fill:url(#linear-gradient-2);}.cls-3{fill:url(#linear-gradient-3);}.cls-4{fill:url(#linear-gradient-4);}</style><linearGradient id="linear-gradient" x1="74.36" y1="82.42" x2="192.52" y2="82.42" gradientUnits="userSpaceOnUse"><stop offset="0" stop-color="#ff4420"/><stop offset="0.15" stop-color="#fe4821"/><stop offset="0.3" stop-color="#fc5423"/><stop offset="0.46" stop-color="#f86928"/><stop offset="0.62" stop-color="#f2862e"/><stop offset="0.77" stop-color="#eaab36"/><stop offset="0.93" stop-color="#e1d83f"/><stop offset="1" stop-color="#de4"/></linearGradient><linearGradient id="linear-gradient-2" x1="-5.41" y1="66.08" x2="92.17" y2="66.08" xlink:href="#linear-gradient"/><linearGradient id="linear-gradient-3" x1="67.06" y1="82.42" x2="121.78" y2="82.42" xlink:href="#linear-gradient"/><linearGradient id="linear-gradient-4" x1="79.41" y1="-155.37" x2="24.69" y2="-155.37" gradientTransform="translate(132.59 -89.29) rotate(180)" xlink:href="#linear-gradient"/></defs><g id="Layer_2" data-name="Layer 2"><g id="OBJECTS"><path class="cls-1" d="M194.17,71.09l-39-49.72a13.25,13.25,0,0,0-10.36-5H131.47L123.9,34.62h9.65A9.44,9.44,0,0,1,139.84,37a7.91,7.91,0,0,1,1.2,1.25l28.22,36a13.28,13.28,0,0,1,0,16.4l-28.22,36a9.52,9.52,0,0,1-7.49,3.64H77.69L70.1,148.49h74.7a13.19,13.19,0,0,0,10.36-5l39-49.72A18.37,18.37,0,0,0,194.17,71.09Z"/><path class="cls-2" d="M53.28,0A13.19,13.19,0,0,0,42.92,5l-39,49.72a18.37,18.37,0,0,0,0,22.65l39,49.72a13.19,13.19,0,0,0,10.36,5H66.62l7.57-18.27H64.53A9.52,9.52,0,0,1,57,110.24l-28.22-36a13.28,13.28,0,0,1,0-16.4L57,21.91a9.52,9.52,0,0,1,7.49-3.64h55.83L128,0Z"/><polygon class="cls-3" points="87.04 148.49 70.1 148.49 124.91 16.34 141.86 16.34 87.04 148.49"/><polygon class="cls-4" points="111.03 0 127.97 0 73.16 132.15 56.21 132.15 111.03 0"/></g></g></svg>