<svg xmlns="http://www.w3.org/2000/svg" viewBox="0 0 80.29 69.58"><g id="Layer_2" data-name="Layer 2"><g id="laurel_wreath" data-name="laurel wreath"><path d="M34,65.2c-13.5,1-25.69-9.26-28.85-24.54A35.37,35.37,0,0,1,7.9,18.25,30.16,30.16,0,0,1,22.63,4.15,32.21,32.21,0,0,1,26,2.86c.45-.14.7-.45.26-.32A31.86,31.86,0,0,0,10.34,13,33.37,33.37,0,0,0,3.78,32c-.64,14.13,7.08,27.3,18.48,32.19A25.16,25.16,0,0,0,34,66V65.2Z"/><path d="M19.79,69.12l.54.12c.34.06.84.14,1.43.22s1.29.11,2,.12a17.81,17.81,0,0,0,2.28-.15,13.59,13.59,0,0,0,2.2-.48,9.77,9.77,0,0,0,1.83-.79c1-.65,1.6-1.37,1.46-2.15a41.07,41.07,0,0,0-4.91.64c-.36.07-.7.15-1,.23l-.95.23c-.61.19-1.17.34-1.68.52s-1,.36-1.35.53a11,11,0,0,0-1,.48A7.15,7.15,0,0,0,19.79,69.12Z"/><path d="M13.33,64.94l.48.23c.31.14.74.35,1.28.56a18.88,18.88,0,0,0,1.84.61c.34.09.68.18,1,.26s.72.14,1.08.19a10.14,10.14,0,0,0,1.08.11c.36,0,.71,0,1.05,0A8.32,8.32,0,0,0,23,66.66,3.64,3.64,0,0,0,24.3,66a1.35,1.35,0,0,0,.49-1,35.28,35.28,0,0,0-4.66-.7c-.68-.06-1.33-.07-1.92-.08l-.86,0c-.28,0-.54,0-.79,0a16.56,16.56,0,0,0-2.37.34A5.52,5.52,0,0,0,13.33,64.94Z"/><path d="M7.9,59.21l.4.34c.25.2.61.5,1.07.82a17.43,17.43,0,0,0,1.58,1,15.45,15.45,0,0,0,1.86,1c.32.15.65.26,1,.38s.63.21,1,.29a7.7,7.7,0,0,0,1.74.24,3.17,3.17,0,0,0,1.3-.24,1.16,1.16,0,0,0,.66-.75,32.29,32.29,0,0,0-4.17-1.87A20.86,20.86,0,0,0,11,59.46a12.3,12.3,0,0,0-1.28-.2c-.38,0-.7-.06-1-.07A5.51,5.51,0,0,0,7.9,59.21Z"/><path d="M3.75,52.27l.3.4c.19.27.48.61.84,1,.17.21.36.43.57.65l.68.68a18.11,18.11,0,0,0,1.53,1.34,15.25,15.25,0,0,0,1.65,1.1,7.8,7.8,0,0,0,1.55.68c1,.26,1.68.18,2-.41a32.82,32.82,0,0,0-3.48-2.8c-.51-.37-1-.68-1.5-1s-.92-.51-1.34-.71a13.09,13.09,0,0,0-2-.81A4.39,4.39,0,0,0,3.75,52.27Z"/><path d="M1.07,44.47l.05.11q0,.12.15.33c.14.28.33.67.58,1.14s.56,1,.89,1.52.75,1.09,1.15,1.62a16.5,16.5,0,0,0,1.3,1.42,8.29,8.29,0,0,0,1.29,1c.83.49,1.51.61,1.9.15a30.31,30.31,0,0,0-2.64-3.46,14.9,14.9,0,0,0-1.2-1.27,11.92,11.92,0,0,0-1.09-1,11.69,11.69,0,0,0-1.7-1.23l-.5-.28Z"/><path d="M0,36.22l.11.45c.07.29.15.7.31,1.18s.32,1,.53,1.61.46,1.18.75,1.76a11.56,11.56,0,0,0,1.88,2.89c.66.67,1.26,1,1.7.64-.13-.38-.28-.74-.43-1.09s-.28-.69-.43-1c-.3-.63-.57-1.22-.86-1.76a23.32,23.32,0,0,0-1.67-2.64c-.26-.34-.51-.64-.74-.9s-.42-.47-.59-.64A5.84,5.84,0,0,0,0,36.22Z"/><path d="M.55,28s0,.15,0,.43,0,.68.08,1.15.1,1,.19,1.59c.05.28.09.58.15.88s.13.6.2.89.15.59.23.88.19.56.29.83A7.87,7.87,0,0,0,2.34,36c.47.78,1,1.2,1.42,1A24,24,0,0,0,1.9,30.28,11.85,11.85,0,0,0,1,28.56l-.3-.44Z"/><path d="M2.68,20.13s-.1.58-.21,1.44c0,.44-.08.95-.12,1.49s0,1.13,0,1.69a11.83,11.83,0,0,0,.47,3.1,3,3,0,0,0,.46,1,.76.76,0,0,0,.62.33c0-.72.08-1.4.07-2s0-1.22-.06-1.77-.1-1.05-.18-1.52a12.39,12.39,0,0,0-.23-1.28A14.92,14.92,0,0,0,3,20.76,5,5,0,0,0,2.68,20.13Z"/><path d="M6.28,13.09l-.14.34c-.08.22-.19.53-.31.91s-.26.83-.38,1.31-.24,1-.33,1.51a14.29,14.29,0,0,0-.18,1.54,7.64,7.64,0,0,0,0,1.36c.07.81.32,1.36.73,1.45a20.84,20.84,0,0,0,.89-6,14.06,14.06,0,0,0-.16-1.74A4.83,4.83,0,0,0,6.28,13.09Z"/><path d="M11.1,7.22l-.18.27c-.1.18-.26.43-.43.74a18.27,18.27,0,0,0-1.15,2.34c-.17.45-.32.9-.45,1.33a6.72,6.72,0,0,0-.24,1.22c-.09.74,0,1.3.37,1.48a17,17,0,0,0,1.92-5.18,10.63,10.63,0,0,0,.17-1.6A3.54,3.54,0,0,0,11.1,7.22Z"/><path d="M16.91,2.78s-.3.29-.73.75c-.21.22-.45.51-.69.82s-.51.63-.74,1-.46.72-.65,1.07a7.14,7.14,0,0,0-.44,1c-.21.64-.23,1.15,0,1.41a13.39,13.39,0,0,0,2.68-4.14A7.16,7.16,0,0,0,16.91,2.78Z"/><path d="M23.4,0s-.32.18-.78.47A15.8,15.8,0,0,0,21,1.72c-.27.25-.53.52-.77.77a8.27,8.27,0,0,0-.58.79c-.3.52-.42,1-.22,1.26a8.91,8.91,0,0,0,1.05-.77A8.16,8.16,0,0,0,21.38,3c.26-.27.48-.51.69-.75s.37-.48.52-.7A10.6,10.6,0,0,0,23.22.45,3.62,3.62,0,0,0,23.4,0Z"/><path d="M23.59,57.73l.31.27.83.67,1.21.95c.46.33.95.71,1.46,1.06s1,.73,1.53,1.11a14.43,14.43,0,0,1,1.38,1.09c.81.7,1.37,1.46,1.24,2.23a9.19,9.19,0,0,1-4.45-1.59c-.28-.2-.54-.4-.78-.61s-.45-.45-.65-.67a7.2,7.2,0,0,1-1-1.33,7.43,7.43,0,0,1-.61-1.24,7.59,7.59,0,0,1-.32-1A6.93,6.93,0,0,1,23.59,57.73Z"/><path d="M19,55.25l.89,1.16c.28.33.59.77,1,1.19l.56.68c.2.22.39.45.59.69s.41.47.61.71.4.48.6.72c.39.44.75.93,1.06,1.36A4.8,4.8,0,0,1,25,63a1.55,1.55,0,0,1,0,1.12A9.27,9.27,0,0,1,20.11,60c-.14-.26-.27-.51-.38-.76a6.6,6.6,0,0,1-.27-.73A8.26,8.26,0,0,1,19,56.14,5.67,5.67,0,0,1,19,55.25Z"/><path d="M15,51.58l.17.35c.11.23.25.57.45,1s.41.86.67,1.35.53,1,.81,1.57c.14.28.29.54.43.82l.42.81c.27.52.51,1.07.71,1.55a4.86,4.86,0,0,1,.38,1.35,1.46,1.46,0,0,1-.21,1,10.19,10.19,0,0,1-3-3.42,9.68,9.68,0,0,1-1-3.26,10.37,10.37,0,0,1-.07-1.29,8.22,8.22,0,0,1,.09-1A6.64,6.64,0,0,1,15,51.58Z"/><path d="M11.79,46.92s0,.14.09.38.14.58.24,1c.05.2.1.43.17.67l.2.75c.13.53.31,1.08.45,1.66s.33,1.16.47,1.73a15.8,15.8,0,0,1,.36,1.61c.18,1,.16,1.84-.31,2.24A11,11,0,0,1,11.38,53a11.44,11.44,0,0,1-.33-1.76,11,11,0,0,1,0-1.51,8.09,8.09,0,0,1,.43-2.1A4.89,4.89,0,0,1,11.79,46.92Z"/><path d="M9.53,41.51a.45.45,0,0,1,0,.1c0,.07,0,.16,0,.27s0,.57,0,1,.06.88.07,1.41.09,1.08.11,1.65.07,1.15.1,1.71a13.9,13.9,0,0,1,0,1.57c0,1-.22,1.73-.72,2A11.34,11.34,0,0,1,8,47a11.75,11.75,0,0,1,0-1.7,12.74,12.74,0,0,1,.27-1.39,7.86,7.86,0,0,1,.79-1.83,4.3,4.3,0,0,1,.3-.45Z"/><path d="M8.4,35.59s-.08.49-.2,1.26c-.06.38-.13.83-.2,1.32s-.15,1-.21,1.55a28.9,28.9,0,0,1-.53,3c-.21.87-.54,1.52-1,1.61C6.13,44,6.05,43.6,6,43.24a9.9,9.9,0,0,1-.1-1.07A9.62,9.62,0,0,1,6,40.28a7.86,7.86,0,0,1,1.41-3.65q.29-.36.51-.6A4.24,4.24,0,0,1,8.4,35.59Z"/><path d="M8.44,29.45s0,.11-.12.31L8,30.57c-.14.33-.27.73-.43,1.16-.07.21-.16.44-.24.67l-.24.7c-.17.46-.34.93-.52,1.4s-.37.88-.55,1.25c-.36.73-.79,1.24-1.27,1.19a12.17,12.17,0,0,1,.15-2.08c.05-.32.11-.61.18-.9a8.35,8.35,0,0,1,.25-.8,7.24,7.24,0,0,1,1.3-2.31A5.91,5.91,0,0,1,7.9,29.74a2.08,2.08,0,0,1,.39-.22Z"/><path d="M9.68,23.45l-.59.91c-.17.28-.37.61-.6,1s-.44.74-.69,1.12a21.37,21.37,0,0,1-1.47,2.14,3.2,3.2,0,0,1-.71.65.75.75,0,0,1-.67.1,11.69,11.69,0,0,1,.52-1.85,9.87,9.87,0,0,1,.72-1.42A8.87,8.87,0,0,1,7,25a6.36,6.36,0,0,1,.81-.72,4.53,4.53,0,0,1,1.33-.7A2.9,2.9,0,0,1,9.68,23.45Z"/><path d="M12.09,17.87,9.82,20.13c-.29.29-.58.58-.88.85a10,10,0,0,1-.85.71c-.55.38-1,.58-1.38.31a10.26,10.26,0,0,1,.82-1.52,9.86,9.86,0,0,1,.92-1.11,5.52,5.52,0,0,1,1.8-1.19,3.92,3.92,0,0,1,1.33-.32A2.52,2.52,0,0,1,12.09,17.87Z"/><path d="M15.56,13l-.21.13c-.13.08-.32.19-.54.34-.47.26-1.07.66-1.71,1-.31.2-.64.39-.95.55a8.77,8.77,0,0,1-.9.42,2.25,2.25,0,0,1-.77.17A.68.68,0,0,1,10,15.4a5.78,5.78,0,0,1,3.89-2.55,4.15,4.15,0,0,1,1.26,0A2.47,2.47,0,0,1,15.56,13Z"/><path d="M19.92,9.15s-.29.1-.76.23l-.79.25-.93.26a7.81,7.81,0,0,1-1,.25,6.09,6.09,0,0,1-.88.16c-.54,0-1-.05-1.14-.4a5.09,5.09,0,0,1,3.94-1.31A3.49,3.49,0,0,1,19.92,9.15Z"/><path d="M25,6.51s-.29,0-.72,0l-.75,0h-.87a6.58,6.58,0,0,1-.89,0,5.05,5.05,0,0,1-.81-.08c-.48-.09-.85-.28-.93-.64a7.71,7.71,0,0,1,1.14-.39,6.38,6.38,0,0,1,1-.1,3.83,3.83,0,0,1,.86.1,4,4,0,0,1,.71.22,3.59,3.59,0,0,1,.93.56A2.41,2.41,0,0,1,25,6.51Z"/><path d="M31.57,2.12,30.5,2c-.32,0-.71-.05-1.14-.06h-.67L28,2c-.24,0-.49,0-.73.06l-.74.13a9.13,9.13,0,0,0-1.41.38,6.32,6.32,0,0,0-1.2.55c-.17.11-.33.22-.47.33a3.17,3.17,0,0,0-.37.36,4.68,4.68,0,0,0,1.06,0c.39,0,.82-.14,1.26-.22.22,0,.45-.1.68-.16l.7-.16.69-.18.7-.16.67-.17.63-.14c.4-.09.77-.19,1.09-.24Z"/><path d="M46.28,65.2c13.5,1,25.69-9.26,28.85-24.54a35.37,35.37,0,0,0-2.74-22.41A30.16,30.16,0,0,0,57.66,4.15a32.21,32.21,0,0,0-3.33-1.29c-.45-.14-.7-.45-.26-.32A31.86,31.86,0,0,1,70,13a33.37,33.37,0,0,1,6.56,19c.64,14.13-7.08,27.3-18.48,32.19A25.16,25.16,0,0,1,46.28,66V65.2Z"/><path d="M60.5,69.12l-.54.12c-.34.06-.84.14-1.43.22s-1.29.11-2,.12a17.81,17.81,0,0,1-2.28-.15A13.59,13.59,0,0,1,52,69a9.77,9.77,0,0,1-1.83-.79c-1-.65-1.6-1.37-1.46-2.15a41.07,41.07,0,0,1,4.91.64l1,.23,1,.23c.61.19,1.17.34,1.68.52s1,.36,1.35.53a11,11,0,0,1,1,.48A7.15,7.15,0,0,1,60.5,69.12Z"/><path d="M67,64.94l-.48.23c-.31.14-.74.35-1.28.56a18.88,18.88,0,0,1-1.84.61c-.34.09-.68.18-1,.26s-.72.14-1.08.19a10.14,10.14,0,0,1-1.08.11c-.36,0-.71,0-1,0a8.32,8.32,0,0,1-1.84-.26A3.55,3.55,0,0,1,56,66a1.4,1.4,0,0,1-.5-1,35.65,35.65,0,0,1,4.67-.7c.68-.06,1.33-.07,1.92-.08l.86,0c.28,0,.54,0,.79,0a16.56,16.56,0,0,1,2.37.34A5.52,5.52,0,0,1,67,64.94Z"/><path d="M72.39,59.21l-.4.34c-.25.2-.61.5-1.07.82a17.43,17.43,0,0,1-1.58,1,16.24,16.24,0,0,1-1.86,1c-.32.15-.66.26-1,.38s-.64.21-1,.29a7.78,7.78,0,0,1-1.75.24A3.24,3.24,0,0,1,62.5,63a1.18,1.18,0,0,1-.65-.75A32.29,32.29,0,0,1,66,60.39a20.56,20.56,0,0,1,3.28-.93,12.3,12.3,0,0,1,1.28-.2c.38,0,.7-.06,1-.07A5.51,5.51,0,0,1,72.39,59.21Z"/><path d="M76.54,52.27l-.3.4c-.19.27-.48.61-.84,1-.17.21-.36.43-.57.65l-.68.68a18.11,18.11,0,0,1-1.53,1.34A15.25,15.25,0,0,1,71,57.46a7.8,7.8,0,0,1-1.55.68c-1,.26-1.69.18-2-.41a33.85,33.85,0,0,1,3.47-2.8c.52-.37,1-.68,1.51-1s.92-.51,1.34-.71a13.09,13.09,0,0,1,2-.81A4.39,4.39,0,0,1,76.54,52.27Z"/><path d="M79.22,44.47l0,.11q0,.12-.15.33c-.14.28-.33.67-.58,1.14s-.56,1-.9,1.52-.74,1.09-1.14,1.62a16.5,16.5,0,0,1-1.3,1.42,8.29,8.29,0,0,1-1.29,1c-.83.49-1.51.61-1.9.15a29.2,29.2,0,0,1,2.64-3.46,14.9,14.9,0,0,1,1.2-1.27,11.92,11.92,0,0,1,1.09-1,11.69,11.69,0,0,1,1.7-1.23l.5-.28Z"/><path d="M80.29,36.22l-.11.45c-.07.29-.15.7-.31,1.18s-.32,1-.53,1.61-.46,1.18-.75,1.76a11.56,11.56,0,0,1-1.88,2.89c-.66.67-1.26,1-1.7.64.13-.38.28-.74.43-1.09s.28-.69.43-1c.3-.63.57-1.22.87-1.76a20.85,20.85,0,0,1,1.66-2.64c.26-.34.52-.64.74-.9s.42-.47.59-.64A5.84,5.84,0,0,1,80.29,36.22Z"/><path d="M79.74,28s0,.15,0,.43,0,.68-.08,1.15-.1,1-.19,1.59c0,.28-.1.58-.15.88s-.13.6-.2.89-.15.59-.23.88-.19.56-.29.83A7.87,7.87,0,0,1,78,36c-.47.78-1,1.2-1.42,1a24,24,0,0,1,1.86-6.77,12.92,12.92,0,0,1,.93-1.72c.13-.2.23-.34.31-.44Z"/><path d="M77.61,20.13s.1.58.21,1.44c0,.44.08.95.11,1.49s0,1.13,0,1.69a11.83,11.83,0,0,1-.47,3.1,2.83,2.83,0,0,1-.47,1,.74.74,0,0,1-.61.33c-.05-.72-.08-1.4-.07-2s0-1.22.06-1.77.1-1.05.18-1.52a12.39,12.39,0,0,1,.23-1.28,14.92,14.92,0,0,1,.53-1.79A3.63,3.63,0,0,1,77.61,20.13Z"/><path d="M74,13.09l.14.34c.08.22.19.53.31.91s.26.83.38,1.31.23,1,.33,1.51a14.29,14.29,0,0,1,.18,1.54,7.64,7.64,0,0,1,0,1.36c-.07.81-.32,1.36-.73,1.45a20.49,20.49,0,0,1-.89-6,14.06,14.06,0,0,1,.16-1.74A4.83,4.83,0,0,1,74,13.09Z"/><path d="M69.18,7.22l.18.27c.11.18.27.43.44.74A18.27,18.27,0,0,1,71,10.57c.17.45.32.9.45,1.33a6.72,6.72,0,0,1,.24,1.22c.09.74,0,1.3-.37,1.48a17,17,0,0,1-1.92-5.18,8.52,8.52,0,0,1-.17-1.6A4.65,4.65,0,0,1,69.18,7.22Z"/><path d="M63.38,2.78s.3.29.73.75c.21.22.45.51.69.82s.51.63.74,1,.46.72.65,1.07a7.14,7.14,0,0,1,.44,1c.21.64.23,1.15,0,1.41a13.33,13.33,0,0,1-2.67-4.14A7.16,7.16,0,0,1,63.38,2.78Z"/><path d="M56.89,0s.32.18.78.47a15.8,15.8,0,0,1,1.58,1.25c.27.25.53.52.77.77a8.27,8.27,0,0,1,.58.79c.3.52.42,1,.22,1.26a8.91,8.91,0,0,1-1-.77A9.47,9.47,0,0,1,58.9,3c-.25-.27-.48-.51-.68-.75s-.37-.48-.52-.7A10.6,10.6,0,0,1,57.07.45,3.62,3.62,0,0,1,56.89,0Z"/><path d="M56.7,57.73l-.31.27-.83.67-1.21.95c-.46.33-1,.71-1.46,1.06s-1,.73-1.53,1.11A14.43,14.43,0,0,0,50,62.88c-.82.7-1.37,1.46-1.24,2.23a9.12,9.12,0,0,0,4.44-1.59,8.63,8.63,0,0,0,.79-.61c.24-.23.45-.45.65-.67a7.2,7.2,0,0,0,1-1.33,8.3,8.3,0,0,0,.61-1.24,7.59,7.59,0,0,0,.32-1A5.35,5.35,0,0,0,56.7,57.73Z"/><path d="M61.27,55.25l-.89,1.16c-.28.33-.59.77-1,1.19l-.56.68q-.3.33-.6.69c-.19.25-.4.47-.6.71s-.4.48-.6.72c-.39.44-.75.93-1.06,1.36A4.8,4.8,0,0,0,55.32,63a1.55,1.55,0,0,0,0,1.12A9.27,9.27,0,0,0,60.18,60c.14-.26.27-.51.38-.76a6.6,6.6,0,0,0,.27-.73,8.64,8.64,0,0,0,.45-2.33A5.67,5.67,0,0,0,61.27,55.25Z"/><path d="M65.28,51.58l-.17.35c-.11.23-.25.57-.45,1s-.41.86-.67,1.35-.53,1-.81,1.57c-.14.28-.29.54-.43.82s-.28.54-.41.81c-.28.52-.52,1.07-.72,1.55a4.86,4.86,0,0,0-.38,1.35,1.46,1.46,0,0,0,.21,1,10.3,10.3,0,0,0,3-3.42,9.68,9.68,0,0,0,1-3.26,12.75,12.75,0,0,0,.07-1.29,8.22,8.22,0,0,0-.09-1A6.64,6.64,0,0,0,65.28,51.58Z"/><path d="M68.5,46.92s0,.14-.09.38-.14.58-.24,1c-.06.2-.1.43-.17.67l-.2.75c-.13.53-.31,1.08-.45,1.66s-.33,1.16-.47,1.73a15.8,15.8,0,0,0-.36,1.61c-.18,1-.16,1.84.31,2.24A11,11,0,0,0,68.91,53a11.44,11.44,0,0,0,.33-1.76,11,11,0,0,0,0-1.51,8.09,8.09,0,0,0-.43-2.1A6.63,6.63,0,0,0,68.5,46.92Z"/><path d="M70.75,41.51v.1c0,.07,0,.16,0,.27s0,.57,0,1-.06.88-.07,1.41-.08,1.08-.11,1.65-.07,1.15-.1,1.71a13.9,13.9,0,0,0,0,1.57c0,1,.22,1.73.72,2A11.34,11.34,0,0,0,72.27,47a11.75,11.75,0,0,0,0-1.7A10.63,10.63,0,0,0,72,43.94a7.5,7.5,0,0,0-.78-1.83,4.3,4.3,0,0,0-.3-.45Z"/><path d="M71.89,35.59s.08.49.2,1.26c.06.38.13.83.2,1.32s.14,1,.21,1.55a28.9,28.9,0,0,0,.53,3c.21.87.54,1.52,1,1.61.08-.39.16-.77.21-1.13a9.9,9.9,0,0,0,.1-1.07,9.62,9.62,0,0,0-.08-1.89,7.86,7.86,0,0,0-1.41-3.65q-.29-.36-.51-.6A4.24,4.24,0,0,0,71.89,35.59Z"/><path d="M71.85,29.45s.05.11.12.31l.29.81c.14.33.27.73.42,1.16.08.21.17.44.25.67l.24.7c.17.46.34.93.52,1.4s.37.88.54,1.25c.37.73.8,1.24,1.28,1.19a12.17,12.17,0,0,0-.15-2.08c0-.32-.11-.61-.18-.9a8.35,8.35,0,0,0-.25-.8,7.44,7.44,0,0,0-1.3-2.31,5.67,5.67,0,0,0-1.24-1.11,2.08,2.08,0,0,0-.39-.22Z"/><path d="M70.61,23.45s.22.36.59.91l.59,1c.23.35.45.74.7,1.12A21.37,21.37,0,0,0,74,28.58a3.2,3.2,0,0,0,.71.65.75.75,0,0,0,.67.1,11.69,11.69,0,0,0-.52-1.85,9.87,9.87,0,0,0-.72-1.42A8.87,8.87,0,0,0,73.29,25a6.36,6.36,0,0,0-.81-.72,4.53,4.53,0,0,0-1.33-.7A2.9,2.9,0,0,0,70.61,23.45Z"/><path d="M68.2,17.87l2.27,2.26c.29.29.58.58.88.85a10,10,0,0,0,.85.71c.55.38,1,.58,1.38.31a10.26,10.26,0,0,0-.82-1.52,9.86,9.86,0,0,0-.92-1.11A5.52,5.52,0,0,0,70,18.18a3.92,3.92,0,0,0-1.33-.32A2.52,2.52,0,0,0,68.2,17.87Z"/><path d="M64.73,13l.21.13.54.34c.47.26,1.07.66,1.71,1,.31.2.64.39,1,.55a8.77,8.77,0,0,0,.9.42,2.2,2.2,0,0,0,.77.17.72.72,0,0,0,.54-.24,5.82,5.82,0,0,0-3.9-2.55,4.15,4.15,0,0,0-1.26,0A2.47,2.47,0,0,0,64.73,13Z"/><path d="M60.37,9.15s.29.1.76.23l.79.25.92.26a8.48,8.48,0,0,0,1,.25,6.09,6.09,0,0,0,.88.16c.54,0,1-.05,1.14-.4a5.1,5.1,0,0,0-3.95-1.31A3.48,3.48,0,0,0,60.37,9.15Z"/><path d="M55.32,6.51s.29,0,.72,0l.75,0h.87a6.58,6.58,0,0,0,.89,0,5.05,5.05,0,0,0,.81-.08c.48-.09.85-.28.93-.64a8.13,8.13,0,0,0-1.14-.39,6.38,6.38,0,0,0-1-.1,3.83,3.83,0,0,0-.86.1,4,4,0,0,0-.71.22,3.59,3.59,0,0,0-.93.56A2.41,2.41,0,0,0,55.32,6.51Z"/><path d="M48.72,2.12,49.78,2c.33,0,.72-.05,1.15-.06h.67l.71.05L53,2l.74.13a9.13,9.13,0,0,1,1.41.38,6.32,6.32,0,0,1,1.2.55c.17.11.33.22.47.33a3.17,3.17,0,0,1,.37.36,4.68,4.68,0,0,1-1.06,0c-.39,0-.82-.14-1.26-.22-.22,0-.45-.1-.68-.16l-.7-.16-.69-.18-.7-.16-.67-.17-.63-.14c-.4-.09-.77-.19-1.09-.24Z"/></g></g></svg>