<svg id="visual" viewBox="0 0 900 600" width="900" height="600" xmlns="http://www.w3.org/2000/svg" xmlns:xlink="http://www.w3.org/1999/xlink" version="1.1"><g fill="#f1f1f9"><circle r="27" cx="775" cy="76"></circle><circle r="16" cx="306" cy="31"></circle><circle r="19" cx="77" cy="266"></circle><circle r="23" cx="254" cy="447"></circle><circle r="19" cx="362" cy="105"></circle><circle r="20" cx="582" cy="281"></circle><circle r="25" cx="357" cy="231"></circle><circle r="24" cx="250" cy="291"></circle><circle r="25" cx="384" cy="277"></circle><circle r="24" cx="268" cy="531"></circle><circle r="20" cx="558" cy="548"></circle><circle r="21" cx="634" cy="146"></circle><circle r="18" cx="178" cy="197"></circle><circle r="22" cx="796" cy="328"></circle><circle r="25" cx="630" cy="251"></circle><circle r="15" cx="202" cy="465"></circle><circle r="19" cx="819" cy="214"></circle><circle r="21" cx="141" cy="500"></circle><circle r="18" cx="251" cy="121"></circle><circle r="19" cx="524" cy="435"></circle><circle r="25" cx="507" cy="174"></circle><circle r="23" cx="342" cy="325"></circle><circle r="20" cx="661" cy="512"></circle><circle r="22" cx="92" cy="122"></circle><circle r="22" cx="697" cy="396"></circle><circle r="15" cx="261" cy="66"></circle><circle r="17" cx="419" cy="161"></circle><circle r="24" cx="123" cy="551"></circle><circle r="24" cx="54" cy="412"></circle><circle r="17" cx="137" cy="427"></circle><circle r="17" cx="375" cy="498"></circle><circle r="25" cx="856" cy="379"></circle><circle r="20" cx="669" cy="316"></circle><circle r="18" cx="357" cy="564"></circle><circle r="23" cx="449" cy="99"></circle><circle r="23" cx="586" cy="452"></circle><circle r="22" cx="512" cy="98"></circle><circle r="25" cx="501" cy="556"></circle><circle r="20" cx="252" cy="388"></circle><circle r="15" cx="688" cy="247"></circle><circle r="16" cx="406" cy="543"></circle></g></svg>