<svg xmlns="http://www.w3.org/2000/svg" xmlns:xlink="http://www.w3.org/1999/xlink" viewBox="0 0 243.72 350.31"><defs><style>.cls-1{fill:url(#New_Gradient_Swatch_2);}.cls-2{fill:#f0f0f0;}.cls-3{opacity:0.1;}.cls-4{fill:url(#New_Gradient_Swatch_1);}.cls-5{fill:#fafafa;}.cls-6{fill:#e0e0e0;}.cls-7{fill:url(#New_Gradient_Swatch_1-2);}.cls-8{fill:url(#New_Gradient_Swatch_1-3);}.cls-9{fill:url(#New_Gradient_Swatch_1-4);}.cls-10{fill:url(#New_Gradient_Swatch_1-5);}.cls-11{fill:url(#New_Gradient_Swatch_1-6);}.cls-12{fill:url(#New_Gradient_Swatch_1-7);}.cls-13{fill:url(#New_Gradient_Swatch_1-8);}.cls-14{fill:url(#New_Gradient_Swatch_1-9);}.cls-15{fill:url(#New_Gradient_Swatch_1-10);}.cls-16{fill:#e6e6e6;}.cls-17{fill:url(#New_Gradient_Swatch_1-11);}.cls-18{fill:url(#New_Gradient_Swatch_1-12);}.cls-19{fill:#3c3e49;}.cls-20{fill:url(#New_Gradient_Swatch_1-13);}.cls-21{fill:url(#New_Gradient_Swatch_1-14);}.cls-22{fill:#fff;}.cls-23,.cls-26{fill:#455a64;}.cls-23,.cls-25{opacity:0.5;}.cls-24{fill:none;stroke:#e0e0e0;stroke-miterlimit:10;stroke-width:0.75px;}</style><linearGradient id="New_Gradient_Swatch_2" x1="91.49" y1="175.15" x2="335.2" y2="175.15" gradientTransform="matrix(-1, 0, 0, 1, 335.21, 0)" gradientUnits="userSpaceOnUse"><stop offset="0" stop-color="#ff4420"/><stop offset="1" stop-color="#ddba44"/></linearGradient><linearGradient id="New_Gradient_Swatch_1" x1="95.55" y1="78.32" x2="335.2" y2="78.32" gradientTransform="matrix(-1, 0, 0, 1, 335.21, 0)" gradientUnits="userSpaceOnUse"><stop offset="0" stop-color="#ff4420"/><stop offset="1" stop-color="#de4"/></linearGradient><linearGradient id="New_Gradient_Swatch_1-2" x1="111.8" y1="220.9" x2="115.86" y2="220.9" xlink:href="#New_Gradient_Swatch_1"/><linearGradient id="New_Gradient_Swatch_1-3" x1="111.8" y1="230.29" x2="115.86" y2="230.29" xlink:href="#New_Gradient_Swatch_1"/><linearGradient id="New_Gradient_Swatch_1-4" x1="111.8" y1="239.66" x2="115.86" y2="239.66" xlink:href="#New_Gradient_Swatch_1"/><linearGradient id="New_Gradient_Swatch_1-5" x1="111.8" y1="249.03" x2="115.86" y2="249.03" xlink:href="#New_Gradient_Swatch_1"/><linearGradient id="New_Gradient_Swatch_1-6" x1="111.63" y1="272.59" x2="115.69" y2="272.59" xlink:href="#New_Gradient_Swatch_1"/><linearGradient id="New_Gradient_Swatch_1-7" x1="111.63" y1="281.98" x2="115.69" y2="281.98" xlink:href="#New_Gradient_Swatch_1"/><linearGradient id="New_Gradient_Swatch_1-8" x1="111.63" y1="291.35" x2="115.69" y2="291.35" xlink:href="#New_Gradient_Swatch_1"/><linearGradient id="New_Gradient_Swatch_1-9" x1="111.63" y1="300.72" x2="115.69" y2="300.72" xlink:href="#New_Gradient_Swatch_1"/><linearGradient id="New_Gradient_Swatch_1-10" x1="258.03" y1="144.82" x2="318.96" y2="144.82" xlink:href="#New_Gradient_Swatch_1"/><linearGradient id="New_Gradient_Swatch_1-11" x1="160.54" y1="257.8" x2="249.91" y2="257.8" xlink:href="#New_Gradient_Swatch_1"/><linearGradient id="New_Gradient_Swatch_1-12" x1="223.19" y1="193.93" x2="236" y2="193.93" xlink:href="#New_Gradient_Swatch_1"/><linearGradient id="New_Gradient_Swatch_1-13" x1="310.84" y1="65.23" x2="318.96" y2="65.23" xlink:href="#New_Gradient_Swatch_1"/><linearGradient id="New_Gradient_Swatch_1-14" x1="160.54" y1="141.16" x2="327.09" y2="141.16" xlink:href="#New_Gradient_Swatch_1"/></defs><g id="Layer_2" data-name="Layer 2"><g id="Windows"><path class="cls-1" d="M241.69,349.84a4.63,4.63,0,0,0,2-3.67v-206a4.76,4.76,0,0,0-2.17-3.75L6.23.54A4.65,4.65,0,0,0,2,.46,4.66,4.66,0,0,0,0,4.14v206a4.78,4.78,0,0,0,2.17,3.75L237.49,349.77A4.64,4.64,0,0,0,241.69,349.84Z"/><path class="cls-2" d="M237.9,350l.09,0a.9.9,0,0,0,.21.08l.16.05a1.32,1.32,0,0,0,.3.07.65.65,0,0,0,.2,0l.33,0a4.18,4.18,0,0,0,2.49-.43,4.62,4.62,0,0,0,2-3.67V165.79l-4.07,2.35V348.51c0,1-.49,1.55-1.2,1.55a1,1,0,0,1-.29,0h0A.83.83,0,0,1,237.9,350Z"/><path class="cls-3" d="M239,140.36a4.4,4.4,0,0,1,.63,2.13v25.65l4.07-2.35V140.15a2.26,2.26,0,0,0,0-.26,5.07,5.07,0,0,0-.09-.54,5.3,5.3,0,0,0-.54-1.34Z"/><path class="cls-4" d="M0,4.13V15.7L172.5,115.29c1.19.69,2.16.13,2.16-1.25v-4.38c0-1.38,1-1.94,2.17-1.25l52.53,30.33a4.78,4.78,0,0,1,2.17,3.75v4.38a4.8,4.8,0,0,0,2.16,3.75l6,3.44V142.49a4.8,4.8,0,0,0-2.16-3.75L2.17,2.88C1,2.19,0,2.75,0,4.13Z"/><path class="cls-5" d="M0,210.16a4.78,4.78,0,0,0,2.17,3.75L237.49,349.76c1.19.69,2.16.13,2.16-1.25V154.06l-6-3.44c-1.19-.69-3.13-11.19-4.33-11.88l-51.65-29.82c-1.2-.69-4,7.06-5.21,6.37L0,15.7V210.16Z"/><path class="cls-2" d="M229.37,204.41,185,178.76c-1.19-.69-2.16-.13-2.16,1.25V306.35A4.8,4.8,0,0,0,185,310.1l44.42,25.64c1.19.69,2.16.13,2.16-1.25V208.16A4.8,4.8,0,0,0,229.37,204.41Z"/><path class="cls-6" d="M221.24,209.1l-28.16-16.27c-1.2-.69-2.17-.2-2.17,1.1a4.64,4.64,0,0,0,2.17,3.59l28.16,16.27c1.2.69,2.17.2,2.17-1.1A4.64,4.64,0,0,0,221.24,209.1Z"/><path class="cls-7" d="M223.41,221.23v1.69c0,.83-.58,1.16-1.3.75l-1.47-.85a2.87,2.87,0,0,1-1.29-2.25v-1.69c0-.83.58-1.16,1.29-.75l1.47.85A2.86,2.86,0,0,1,223.41,221.23Z"/><path class="cls-6" d="M215.28,217.38c0,1.3-1,1.79-2.16,1.1l-20-11.57a4.64,4.64,0,0,1-2.17-3.6c0-1.29,1-1.79,2.17-1.09l20,11.57A4.65,4.65,0,0,1,215.28,217.38Z"/><path class="cls-8" d="M223.41,230.62v1.69c0,.83-.58,1.16-1.3.75l-1.47-.85a2.87,2.87,0,0,1-1.29-2.25v-1.69c0-.83.58-1.16,1.29-.75l1.47.85A2.86,2.86,0,0,1,223.41,230.62Z"/><path class="cls-6" d="M215.28,226.77c0,1.3-1,1.79-2.16,1.1l-20-11.57a4.64,4.64,0,0,1-2.17-3.6c0-1.29,1-1.78,2.17-1.09l20,11.57A4.65,4.65,0,0,1,215.28,226.77Z"/><path class="cls-9" d="M223.41,240v1.69c0,.83-.58,1.17-1.3.75l-1.47-.84a2.89,2.89,0,0,1-1.29-2.25v-1.69c0-.83.58-1.17,1.29-.75l1.47.84A2.87,2.87,0,0,1,223.41,240Z"/><path class="cls-6" d="M215.28,236.15c0,1.29-1,1.78-2.16,1.09l-20-11.57a4.64,4.64,0,0,1-2.17-3.6c0-1.29,1-1.78,2.17-1.09l20,11.57A4.65,4.65,0,0,1,215.28,236.15Z"/><path class="cls-10" d="M223.41,249.36v1.69c0,.83-.58,1.17-1.3.75l-1.47-.84a2.89,2.89,0,0,1-1.29-2.25V247c0-.83.58-1.17,1.29-.75l1.47.84A2.87,2.87,0,0,1,223.41,249.36Z"/><path class="cls-6" d="M215.28,245.52c0,1.29-1,1.78-2.16,1.09l-20-11.57a4.64,4.64,0,0,1-2.17-3.59c0-1.3,1-1.79,2.17-1.1l20,11.57A4.65,4.65,0,0,1,215.28,245.52Z"/><path class="cls-6" d="M221.41,260.78l-28.16-16.26c-1.2-.69-2.17-.2-2.17,1.1a4.64,4.64,0,0,0,2.17,3.59l28.17,16.27c1.19.69,2.16.19,2.16-1.1A4.64,4.64,0,0,0,221.41,260.78Z"/><path class="cls-11" d="M223.58,272.92v1.69c0,.82-.58,1.16-1.3.75l-1.46-.85a2.86,2.86,0,0,1-1.3-2.25v-1.69c0-.83.58-1.16,1.3-.75l1.46.85A2.86,2.86,0,0,1,223.58,272.92Z"/><path class="cls-6" d="M215.46,269.07c0,1.3-1,1.79-2.17,1.1l-20-11.58a4.64,4.64,0,0,1-2.17-3.59c0-1.3,1-1.79,2.17-1.1l20,11.57A4.64,4.64,0,0,1,215.46,269.07Z"/><path class="cls-12" d="M223.58,282.31V284c0,.82-.58,1.16-1.3.75l-1.46-.85a2.86,2.86,0,0,1-1.3-2.25V280c0-.83.58-1.16,1.3-.75l1.46.85A2.86,2.86,0,0,1,223.58,282.31Z"/><path class="cls-6" d="M215.46,278.46c0,1.3-1,1.79-2.17,1.1l-20-11.58a4.64,4.64,0,0,1-2.17-3.59c0-1.3,1-1.79,2.17-1.1l20,11.57A4.65,4.65,0,0,1,215.46,278.46Z"/><path class="cls-13" d="M223.58,291.68v1.69c0,.83-.58,1.16-1.3.75l-1.46-.84a2.89,2.89,0,0,1-1.3-2.25v-1.7c0-.82.58-1.16,1.3-.75l1.46.85A2.86,2.86,0,0,1,223.58,291.68Z"/><path class="cls-6" d="M215.46,287.83c0,1.3-1,1.79-2.17,1.1l-20-11.57a4.64,4.64,0,0,1-2.17-3.6c0-1.29,1-1.78,2.17-1.09l20,11.57A4.64,4.64,0,0,1,215.46,287.83Z"/><path class="cls-14" d="M223.58,301.05v1.69c0,.83-.58,1.17-1.3.75l-1.46-.84a2.89,2.89,0,0,1-1.3-2.25v-1.7c0-.82.58-1.16,1.3-.75l1.46.85A2.86,2.86,0,0,1,223.58,301.05Z"/><path class="cls-6" d="M215.46,297.21c0,1.29-1,1.78-2.17,1.09l-20-11.57a4.64,4.64,0,0,1-2.17-3.6c0-1.29,1-1.78,2.17-1.09l20,11.57A4.64,4.64,0,0,1,215.46,297.21Z"/><path class="cls-15" d="M77.18,161.25v2.32c0,1.38-1,1.94-2.17,1.24l-56.6-32.94a4.81,4.81,0,0,1-2.17-3.76v-2c0-1.38,1-1.94,2.17-1.25L75,157.5A4.78,4.78,0,0,1,77.18,161.25Z"/><path class="cls-16" d="M75,171.57,10.28,134.2c-1.19-.69-2.16-.2-2.16,1.1a4.65,4.65,0,0,0,2.16,3.59L75,176.26c1.19.69,2.16.2,2.16-1.09A4.63,4.63,0,0,0,75,171.57Z"/><path class="cls-16" d="M75,181,10.28,143.58c-1.19-.69-2.16-.2-2.16,1.09a4.65,4.65,0,0,0,2.16,3.6L75,185.64c1.19.69,2.16.2,2.16-1.1A4.62,4.62,0,0,0,75,181Z"/><path class="cls-16" d="M75,190.32,10.28,153c-1.19-.69-2.16-.2-2.16,1.1a4.65,4.65,0,0,0,2.16,3.59L75,195c1.19.69,2.16.2,2.16-1.09A4.63,4.63,0,0,0,75,190.32Z"/><path class="cls-16" d="M75,199.7,10.28,162.33c-1.19-.69-2.16-.2-2.16,1.09a4.65,4.65,0,0,0,2.16,3.6L75,204.39c1.19.69,2.16.2,2.16-1.1A4.62,4.62,0,0,0,75,199.7Z"/><path class="cls-16" d="M75,209.07,10.28,171.7c-1.19-.69-2.16-.2-2.16,1.1a4.65,4.65,0,0,0,2.16,3.59L75,213.76c1.19.69,2.16.2,2.16-1.09A4.63,4.63,0,0,0,75,209.07Z"/><path class="cls-16" d="M75,218.45,10.28,181.08c-1.19-.69-2.16-.2-2.16,1.09a4.65,4.65,0,0,0,2.16,3.6L75,223.14c1.19.69,2.16.2,2.16-1.1A4.62,4.62,0,0,0,75,218.45Z"/><path class="cls-16" d="M75,227.82,10.28,190.45c-1.19-.69-2.16-.2-2.16,1.1a4.65,4.65,0,0,0,2.16,3.59L75,232.51c1.19.69,2.16.2,2.16-1.09A4.63,4.63,0,0,0,75,227.82Z"/><path class="cls-16" d="M75,237.2,10.28,199.83c-1.19-.69-2.16-.2-2.16,1.09a4.65,4.65,0,0,0,2.16,3.6L75,241.89c1.19.69,2.16.2,2.16-1.1A4.62,4.62,0,0,0,75,237.2Z"/><path class="cls-17" d="M109,212.41l14.21,25.14-10,12.95,33-28.43,28.43,61.56v18c0,1.38-1,1.94-2.16,1.25l-85-49.1a4.8,4.8,0,0,1-2.16-3.75v-16Z"/><path class="cls-18" d="M105.61,186.53c-3.54-2-6.4-.38-6.4,3.7a14.14,14.14,0,0,0,6.4,11.09c3.54,2.05,6.4.39,6.4-3.69A14.16,14.16,0,0,0,105.61,186.53Z"/><path class="cls-19" d="M229.37,171.57,10.29,45.08c-1.2-.69-2.17-.13-2.17,1.25V69.48a4.78,4.78,0,0,0,2.17,3.75L229.37,199.71c1.19.69,2.16.14,2.16-1.25V175.32A4.8,4.8,0,0,0,229.37,171.57Z"/><path class="cls-5" d="M89.36,102.79v4c0,.82-.58,1.16-1.3.75L24.37,70.81v-7l63.69,36.77A2.89,2.89,0,0,1,89.36,102.79Z"/><path class="cls-20" d="M17.54,59.83c-.71-.41-1.3-.08-1.3.75v4a2.91,2.91,0,0,0,1.3,2.25l6.83,3.94v-7Z"/><path class="cls-5" d="M17.86,65.72a.29.29,0,0,0,.27.2l.09,0,.76-.23a3.22,3.22,0,0,0,1.23,1.64,1.26,1.26,0,0,0,.63.18.91.91,0,0,0,.48-.13A1.78,1.78,0,0,0,22,65.74a3.92,3.92,0,0,0-1.52-3.17,1.09,1.09,0,0,0-1.11,0,1.79,1.79,0,0,0-.69,1.63,4.17,4.17,0,0,0,.12,1l-.76.23A.3.3,0,0,0,17.86,65.72Zm1.39-1.57A1.34,1.34,0,0,1,19.66,63a.39.39,0,0,1,.21-.06.74.74,0,0,1,.34.11,3.41,3.41,0,0,1,1.24,2.68A1.35,1.35,0,0,1,21,66.88a.56.56,0,0,1-.55-.06A3.39,3.39,0,0,1,19.25,64.15Z"/><path class="cls-21" d="M174.66,175.32v27.83c0,1.39-1,1.95-2.16,1.25L10.29,110.75A4.78,4.78,0,0,1,8.12,107V79.17c0-1.38,1-1.94,2.17-1.25L172.5,171.57A4.77,4.77,0,0,1,174.66,175.32Z"/><path class="cls-16" d="M0,15.7V29.78L239.65,168.14V154.06l-4.45-2.58c-1.19-.69-1.59-1.74-2.16-3.75l-1.51-5.24c-.47-1.82-1-3.06-2.17-3.75l-51.65-29.82c-1.2-.69-2.13-.77-3.05.74L172.81,113c-.68,1.17-1,1.86-2.21,1.17Z"/><path class="cls-22" d="M10.16,11.39c-1.5-.87-2.72-.17-2.72,1.57a6,6,0,0,0,2.72,4.72c1.51.87,2.73.17,2.73-1.57A6,6,0,0,0,10.16,11.39Z"/><path class="cls-22" d="M20,17c-1.51-.86-2.73-.16-2.73,1.58A6,6,0,0,0,20,23.34c1.5.86,2.72.16,2.72-1.58A6,6,0,0,0,20,17Z"/><ellipse class="cls-22" cx="29.78" cy="25.85" rx="2.22" ry="3.85" transform="translate(-8.93 18.35) rotate(-30)"/><path class="cls-23" d="M229.72,155.07l3.4,2-1.29-2.5a.61.61,0,0,1,0-.61c.1-.11.27,0,.39.19l1.84,3.54v0a.29.29,0,0,1,.05.13l0,0a1.11,1.11,0,0,1,0,.19.61.61,0,0,1,0,.15l0,0a.12.12,0,0,1-.05.07h0l-1.84,1.42a.17.17,0,0,1-.18,0,.54.54,0,0,1-.21-.27c-.1-.23-.09-.49,0-.58l1.29-1-3.4-2a.73.73,0,0,1-.27-.58C229.45,155.1,229.57,155,229.72,155.07Z"/><path class="cls-23" d="M226.88,153.43l-3.4-2,1.3-1a.55.55,0,0,0,0-.58c-.1-.24-.28-.35-.39-.27l-1.84,1.42h0l0,.07v0a.35.35,0,0,0,0,.16.57.57,0,0,0,0,.18v0c0,.05,0,.09,0,.13v0l1.84,3.54a.55.55,0,0,0,.18.21.17.17,0,0,0,.21,0,.64.64,0,0,0,0-.61l-1.3-2.5,3.4,2c.15.08.28,0,.28-.27A.74.74,0,0,0,226.88,153.43Z"/><path class="cls-23" d="M215.73,143.65c0-.21.2-.18.29,0l.47,1.14c.79-.09,1.76.69,2.41,2.06.84,1.79.84,3.89,0,4.7a1.2,1.2,0,0,1-1.53.09,4.13,4.13,0,0,1-1.53-1.85.61.61,0,0,1,0-.59c.11-.11.28,0,.39.22.63,1.33,1.65,1.92,2.28,1.32s.63-2.18,0-3.51c-.45-1-1.09-1.51-1.65-1.55l.35.86c.09.22,0,.43-.14.34l-1.38-.91a.45.45,0,0,1-.16-.38Z"/><path class="cls-23" d="M179.2,115.34,178,112.72a.84.84,0,0,1,0-.82c.15-.14.39,0,.53.31l1.24,2.62,1.24-1.19c.15-.14.39,0,.53.31a.77.77,0,0,1,0,.81l-1.24,1.2,1.24,2.62a.77.77,0,0,1,0,.81.2.2,0,0,1-.26,0,.74.74,0,0,1-.27-.32l-1.24-2.62-1.24,1.19a.2.2,0,0,1-.26,0,.68.68,0,0,1-.27-.32.82.82,0,0,1,0-.81Z"/><path class="cls-5" d="M211.22,146.87v-4.38a4.8,4.8,0,0,0-2.16-3.75L14.36,26.39c-1.2-.69-2.17-.13-2.17,1.25V32a4.78,4.78,0,0,0,2.17,3.75l194.7,112.35C210.25,148.81,211.22,148.25,211.22,146.87Z"/><path class="cls-24" d="M15.62,28.7l-.57,1.21a.13.13,0,0,1-.18.07l-1.28-.48c-.2-.08-.28.2-.13.48l.92,1.72a.61.61,0,0,1,.07.34l-.22,1.56c0,.25.18.57.36.55L15.73,34a.26.26,0,0,1,.22.13l1.14,1.46c.18.23.39.14.36-.14l-.22-1.82a.27.27,0,0,1,.07-.25l.92-.66c.15-.11.07-.48-.13-.64l-1.27-1a.55.55,0,0,1-.19-.29L16.06,29C16,28.66,15.71,28.51,15.62,28.7Z"/><g class="cls-25"><path class="cls-26" d="M9.64,25.85a.75.75,0,0,0,.65-.37.75.75,0,0,0-.28-1L3.92,20.94a.75.75,0,1,0-.75,1.29l6.09,3.52A.75.75,0,0,0,9.64,25.85Z"/><path class="cls-26" d="M9.64,29.37a.75.75,0,0,0,.65-.37A.75.75,0,0,0,10,28L3.92,24.45a.75.75,0,0,0-1,.28.74.74,0,0,0,.27,1l6.09,3.52A.75.75,0,0,0,9.64,29.37Z"/><path class="cls-26" d="M9.64,32.89a.75.75,0,0,0,.65-.37.75.75,0,0,0-.28-1L3.92,28a.75.75,0,0,0-.75,1.3l6.09,3.52A.75.75,0,0,0,9.64,32.89Z"/></g><polygon class="cls-6" points="239.65 154.06 239.65 168.14 243.72 165.79 243.72 151.72 239.65 154.06"/></g></g></svg>