<svg xmlns="http://www.w3.org/2000/svg" xmlns:xlink="http://www.w3.org/1999/xlink" viewBox="0 0 165.6 170.69"><defs><style>.cls-1{fill:#e0e0e0;}.cls-2{fill:url(#New_Gradient_Swatch_1);}.cls-3{opacity:0.3;}.cls-10,.cls-4{opacity:0.4;}.cls-5{opacity:0.15;}.cls-6{fill:url(#New_Gradient_Swatch_1-2);}.cls-7{fill:url(#New_Gradient_Swatch_1-3);}.cls-8{fill:url(#New_Gradient_Swatch_1-4);}.cls-9{fill:url(#New_Gradient_Swatch_1-5);}.cls-10{fill:#fff;}.cls-11{fill:url(#New_Gradient_Swatch_1-6);}.cls-12{fill:#3c3e49;}</style><linearGradient id="New_Gradient_Swatch_1" y1="108.96" x2="55.93" y2="108.96" gradientUnits="userSpaceOnUse"><stop offset="0" stop-color="#ff4420"/><stop offset="1" stop-color="#de4"/></linearGradient><linearGradient id="New_Gradient_Swatch_1-2" x1="8.12" y1="111.3" x2="55.93" y2="111.3" xlink:href="#New_Gradient_Swatch_1"/><linearGradient id="New_Gradient_Swatch_1-3" x1="55.8" y1="82.8" x2="107.84" y2="82.8" xlink:href="#New_Gradient_Swatch_1"/><linearGradient id="New_Gradient_Swatch_1-4" x1="63.92" y1="85.15" x2="107.84" y2="85.15" xlink:href="#New_Gradient_Swatch_1"/><linearGradient id="New_Gradient_Swatch_1-5" x1="109.67" y1="45.64" x2="165.6" y2="45.64" xlink:href="#New_Gradient_Swatch_1"/><linearGradient id="New_Gradient_Swatch_1-6" x1="117.8" y1="47.98" x2="165.6" y2="47.98" xlink:href="#New_Gradient_Swatch_1"/></defs><g id="Layer_2" data-name="Layer 2"><g id="_404" data-name="404"><g id="_404-2" data-name="404"><g id="Shadow"><path class="cls-1" d="M19.53,117.58l3.43-2V109Z"/><path class="cls-1" d="M129.21,54.26l3.43-2V45.63Z"/></g><g id="_404-3" data-name="404"><path class="cls-2" d="M55.33,110.72a1.1,1.1,0,0,0-.25-.19l-7.59-4.38v-36a2.45,2.45,0,0,0-.6-1.84,1.33,1.33,0,0,0-.24-.19l-8.11-4.68a1.11,1.11,0,0,0-1.19.08L26.07,70.05a5.06,5.06,0,0,0-1.53,1.28,10.69,10.69,0,0,0-1.24,2.38L1,130a15.12,15.12,0,0,0-1,5.51v12.19a2.45,2.45,0,0,0,.6,1.84,1.1,1.1,0,0,0,.25.19L9,154.37a1.11,1.11,0,0,0,1.18-.08l15.41-8.9v2.35a2.44,2.44,0,0,0,.59,1.84,1.33,1.33,0,0,0,.24.19l8.12,4.69a1.15,1.15,0,0,0,1.19-.08l9.78-5.65A3.82,3.82,0,0,0,46.89,147a5.89,5.89,0,0,0,.6-2.53V132.73L53.91,129a3.82,3.82,0,0,0,1.42-1.74,5.86,5.86,0,0,0,.6-2.53V112.56A2.45,2.45,0,0,0,55.33,110.72Z"/><polygon class="cls-3" points="34.05 100.93 34.05 122.09 27.21 118.14 34.05 100.93"/><polygon class="cls-4" points="34.05 122.09 23.14 128.38 27.21 118.14 34.05 122.09"/><path class="cls-3" d="M34.27,154.27l.14.12-8-4.62a.88.88,0,0,1-.24-.19,2.45,2.45,0,0,1-.6-1.84v-2.35l8.12-4.69v11.73A2.45,2.45,0,0,0,34.27,154.27Z"/><path class="cls-5" d="M55,110.48a1.14,1.14,0,0,0-1.07.13l-6.43,3.71v-8.17Z"/><path class="cls-6" d="M35.69,154.38a1.08,1.08,0,0,1-1.42-.11,2.44,2.44,0,0,1-.6-1.84V140.7L10.14,154.29a1.08,1.08,0,0,1-1.42-.1,2.45,2.45,0,0,1-.6-1.84V140.16a15.37,15.37,0,0,1,1-5.51L31.43,78.4A11.19,11.19,0,0,1,32.66,76a5.18,5.18,0,0,1,1.53-1.28l11.28-6.51a1.07,1.07,0,0,1,1.42.1,2.45,2.45,0,0,1,.6,1.84v44.16l6.42-3.71a1.08,1.08,0,0,1,1.42.1,2.45,2.45,0,0,1,.6,1.84v12.19a5.86,5.86,0,0,1-.6,2.53A3.82,3.82,0,0,1,53.91,129l-6.42,3.71v11.73a5.89,5.89,0,0,1-.6,2.53,3.82,3.82,0,0,1-1.42,1.74ZM34,122.09V100.93l-10.9,27.46Z"/><path class="cls-7" d="M107.69,62.32a50.43,50.43,0,0,0-1.53-11,17,17,0,0,0-4-7.66,9.46,9.46,0,0,0-2-1.61c-1.35-.79-7.39-4.26-8.13-4.69A10.12,10.12,0,0,0,87.39,36q-4-.2-9.63,3a35.46,35.46,0,0,0-9.64,8.1,47.52,47.52,0,0,0-6.68,10.64,55.81,55.81,0,0,0-4,12.24,77.23,77.23,0,0,0-1.54,12.78c-.1,3.36-.14,6.84-.14,10.44s0,7,.14,10a49.81,49.81,0,0,0,1.54,11,16.93,16.93,0,0,0,4,7.66,9.3,9.3,0,0,0,2,1.6c1.36.8,7.48,4.33,8.26,4.77a10.05,10.05,0,0,0,4.52,1.25q4,.19,9.64-3a35.61,35.61,0,0,0,9.64-8.1,47.79,47.79,0,0,0,6.68-10.64,55.9,55.9,0,0,0,4-12.23,78.53,78.53,0,0,0,1.53-12.79q.15-4.8.15-10.21T107.69,62.32ZM78.18,103.19a32.33,32.33,0,0,1-.29-3.77q-.37-9.56,0-19.32a39.87,39.87,0,0,1,.52-5.59,25.24,25.24,0,0,1,1.35-5,15.92,15.92,0,0,1,2.39-4.19,12.66,12.66,0,0,1,3.24-2.88q.26,1.7.36,3.72.3,9.38,0,19.32a42.58,42.58,0,0,1-.49,5.57,22.27,22.27,0,0,1-1.34,5,16.76,16.76,0,0,1-2.43,4.22A12.81,12.81,0,0,1,78.18,103.19Z"/><path class="cls-3" d="M93.88,90.19a44.55,44.55,0,0,1-.49,5.57,22.42,22.42,0,0,1-1.34,5,16.47,16.47,0,0,1-.93,1.94L83,98A18.16,18.16,0,0,0,83.92,96a23,23,0,0,0,1.35-5,44.59,44.59,0,0,0,.48-5.57q.3-9.94,0-19.32c-.07-1.35-.19-2.59-.35-3.73,0,0,.21-.15.48-.31A6.24,6.24,0,0,1,89.62,61,3.33,3.33,0,0,1,92,62.46a8.77,8.77,0,0,1,1.31,3.44,38.72,38.72,0,0,1,.56,5Q94.17,80.25,93.88,90.19Z"/><path class="cls-4" d="M91.12,102.67a16,16,0,0,1-1.5,2.28,12.77,12.77,0,0,1-3.74,3.19,6.29,6.29,0,0,1-3.73,1.12,3.39,3.39,0,0,1-2.43-1.41,8.18,8.18,0,0,1-1.34-3.42c-.08-.4-.14-.82-.2-1.25a12.61,12.61,0,0,0,3.31-2.92A16.08,16.08,0,0,0,83,98Z"/><path class="cls-8" d="M85.88,43.75q5.59-3.24,9.64-3a9.67,9.67,0,0,1,6.68,2.93,17,17,0,0,1,4,7.66,50.43,50.43,0,0,1,1.53,11q.15,4.86.15,10.26t-.15,10.21a78.53,78.53,0,0,1-1.53,12.79,55.9,55.9,0,0,1-4,12.23,47.79,47.79,0,0,1-6.68,10.64,35.61,35.61,0,0,1-9.64,8.1q-5.59,3.22-9.64,3a9.63,9.63,0,0,1-6.68-2.93,16.93,16.93,0,0,1-4-7.66,50.43,50.43,0,0,1-1.53-11c-.1-3.08-.15-6.43-.15-10s0-7.08.15-10.44A78.28,78.28,0,0,1,65.6,74.72a55.81,55.81,0,0,1,4-12.24,48.25,48.25,0,0,1,6.68-10.64A35.39,35.39,0,0,1,85.88,43.75Zm8,46.44q.3-9.94,0-19.32a36.85,36.85,0,0,0-.56-5A8.67,8.67,0,0,0,92,62.46,3.29,3.29,0,0,0,89.61,61a6.4,6.4,0,0,0-3.73,1.13,12.73,12.73,0,0,0-3.73,3.19,16.24,16.24,0,0,0-2.4,4.19,25.94,25.94,0,0,0-1.34,5,39.87,39.87,0,0,0-.52,5.59q-.37,9.77,0,19.32a32.28,32.28,0,0,0,.48,5,8.18,8.18,0,0,0,1.35,3.42,3.43,3.43,0,0,0,2.43,1.42,6.45,6.45,0,0,0,3.73-1.12,12.91,12.91,0,0,0,3.73-3.2A16.88,16.88,0,0,0,92,100.74a23.07,23.07,0,0,0,1.35-5A44.26,44.26,0,0,0,93.87,90.19Z"/><path class="cls-9" d="M165,47.4a1.15,1.15,0,0,0-.26-.19l-7.59-4.38v-36A2.48,2.48,0,0,0,156.57,5a1.1,1.1,0,0,0-.25-.19L148.21.14A1.12,1.12,0,0,0,147,.21L135.74,6.73A5.32,5.32,0,0,0,134.21,8,11.19,11.19,0,0,0,133,10.39L110.65,66.64a15.12,15.12,0,0,0-1,5.51V84.34a2.47,2.47,0,0,0,.6,1.84,1.38,1.38,0,0,0,.25.19c.35.19,8,4.63,8.12,4.68a1.11,1.11,0,0,0,1.17-.08l15.41-8.9v2.35a2.44,2.44,0,0,0,.6,1.84,1.33,1.33,0,0,0,.24.19l8.12,4.69a1.13,1.13,0,0,0,1.18-.08l9.79-5.66a3.8,3.8,0,0,0,1.42-1.73,6,6,0,0,0,.59-2.53V69.41l6.43-3.71A3.89,3.89,0,0,0,165,64a6,6,0,0,0,.59-2.53V49.24A2.49,2.49,0,0,0,165,47.4Z"/><polygon class="cls-3" points="143.72 37.61 143.72 58.77 136.88 54.82 143.72 37.61"/><polygon class="cls-4" points="143.72 58.77 132.81 65.06 136.88 54.82 143.72 58.77"/><path class="cls-3" d="M143.94,91l.14.12-8-4.62a.88.88,0,0,1-.24-.19,2.45,2.45,0,0,1-.6-1.84V82.07l8.12-4.69V89.11A2.45,2.45,0,0,0,143.94,91Z"/><path class="cls-5" d="M164.66,47.16a1.14,1.14,0,0,0-1.07.13L157.16,51V42.83Z"/><path class="cls-10" d="M156.27,4.79a1.14,1.14,0,0,0-1.13.11l-11.27,6.51a5.34,5.34,0,0,0-1.53,1.28L134.22,8a5.29,5.29,0,0,1,1.52-1.28L147,.21a1.1,1.1,0,0,1,1.19-.07Z"/><path class="cls-11" d="M145.36,91.06a1.08,1.08,0,0,1-1.42-.11,2.44,2.44,0,0,1-.6-1.84V77.38L119.81,91a1.07,1.07,0,0,1-1.41-.1,2.47,2.47,0,0,1-.6-1.84V76.84a15.12,15.12,0,0,1,1-5.51L141.1,15.08a10.69,10.69,0,0,1,1.24-2.38,5.06,5.06,0,0,1,1.53-1.28L155.15,4.9a1.09,1.09,0,0,1,1.42.11,2.48,2.48,0,0,1,.59,1.84V51l6.43-3.71a1.09,1.09,0,0,1,1.42.1,2.49,2.49,0,0,1,.59,1.84V61.43A6,6,0,0,1,165,64a3.89,3.89,0,0,1-1.42,1.74l-6.43,3.71V81.14a6,6,0,0,1-.59,2.53,3.8,3.8,0,0,1-1.42,1.73Zm-1.64-32.29V37.61L132.81,65.07Z"/></g><path class="cls-12" d="M66.07,161.85a.24.24,0,0,1,.32,0,.57.57,0,0,1,.14.42v2.76a1.33,1.33,0,0,1-.14.57.89.89,0,0,1-.32.4l-8,4.63a.24.24,0,0,1-.32,0,.53.53,0,0,1-.14-.41V153.38a1.33,1.33,0,0,1,.14-.57,1,1,0,0,1,.32-.4l7.89-4.55a.25.25,0,0,1,.32,0,.57.57,0,0,1,.13.42v2.76a1.31,1.31,0,0,1-.13.57.84.84,0,0,1-.32.4l-5.22,3v2.81l4.84-2.79a.26.26,0,0,1,.33,0,.57.57,0,0,1,.13.42v2.76a1.31,1.31,0,0,1-.13.57.88.88,0,0,1-.33.39L60.72,162v2.92Z"/><path class="cls-12" d="M73.94,143.24a6.16,6.16,0,0,1,2-.79,2.23,2.23,0,0,1,1.5.23,2.4,2.4,0,0,1,.95,1.32,7.55,7.55,0,0,1,.33,2.45,11.31,11.31,0,0,1-.53,3.55,9.05,9.05,0,0,1-1.49,2.82l2.1,5a.6.6,0,0,1,0,.26,1,1,0,0,1-.11.47.72.72,0,0,1-.26.32l-2.3,1.33c-.23.13-.39.14-.48,0a1.13,1.13,0,0,1-.23-.34l-1.88-4.49-1.55.9v5.57a1.34,1.34,0,0,1-.14.58.86.86,0,0,1-.32.39l-2.22,1.28a.24.24,0,0,1-.32,0,.57.57,0,0,1-.13-.42V146.86a1.36,1.36,0,0,1,.13-.58.86.86,0,0,1,.32-.39Zm-1.91,9,1.91-1.11A3.59,3.59,0,0,0,75.11,150a3.12,3.12,0,0,0,.47-1.78c0-.73-.16-1.15-.47-1.24a1.5,1.5,0,0,0-1.17.26L72,148.38Z"/><path class="cls-12" d="M86.12,136.21a6.16,6.16,0,0,1,2-.79,2.17,2.17,0,0,1,1.5.23,2.4,2.4,0,0,1,1,1.32,7.51,7.51,0,0,1,.33,2.45,11.24,11.24,0,0,1-.53,3.54,9.18,9.18,0,0,1-1.48,2.83l2.09,5a.58.58,0,0,1,0,.26,1,1,0,0,1-.11.46.62.62,0,0,1-.26.32l-2.3,1.33c-.22.13-.39.15-.48,0a1.27,1.27,0,0,1-.23-.34l-1.88-4.49-1.55.9v5.57a1.41,1.41,0,0,1-.14.58.86.86,0,0,1-.32.39l-2.22,1.28a.25.25,0,0,1-.32,0,.57.57,0,0,1-.13-.42V139.82a1.31,1.31,0,0,1,.13-.57.86.86,0,0,1,.32-.39Zm-1.91,9,1.91-1.1A3.59,3.59,0,0,0,87.29,143a3.14,3.14,0,0,0,.47-1.78c0-.73-.16-1.15-.47-1.25a1.47,1.47,0,0,0-1.17.27l-1.91,1.1Z"/><path class="cls-12" d="M92.87,139.11a14.73,14.73,0,0,1,.41-3,13.44,13.44,0,0,1,1-2.83,12,12,0,0,1,1.63-2.45A8.67,8.67,0,0,1,98.15,129a4.54,4.54,0,0,1,2.2-.71,2.54,2.54,0,0,1,1.63.57,3.65,3.65,0,0,1,1,1.65,8.78,8.78,0,0,1,.41,2.51c0,.73,0,1.5,0,2.32s0,1.59,0,2.31a14.73,14.73,0,0,1-.41,3,13.82,13.82,0,0,1-1,2.85,11.74,11.74,0,0,1-1.63,2.45,8.86,8.86,0,0,1-2.2,1.82,4.73,4.73,0,0,1-2.21.73,2.39,2.39,0,0,1-1.63-.58,3.71,3.71,0,0,1-1-1.65,8.9,8.9,0,0,1-.41-2.51c0-.7,0-1.46,0-2.28S92.84,139.87,92.87,139.11Zm7.43.22c0-.32,0-.67,0-1.06s0-.79,0-1.19,0-.78,0-1.14,0-.7,0-1a5.27,5.27,0,0,0-.18-1.09,1.67,1.67,0,0,0-.41-.72.93.93,0,0,0-.65-.26,1.77,1.77,0,0,0-.91.29,3.56,3.56,0,0,0-.92.76,4.91,4.91,0,0,0-.65,1,5.65,5.65,0,0,0-.4,1.18,7,7,0,0,0-.18,1.3c0,.31,0,.65,0,1s0,.76,0,1.16,0,.79,0,1.17,0,.72,0,1a2.87,2.87,0,0,0,.58,1.82c.35.38.87.36,1.57,0a3.66,3.66,0,0,0,1.55-1.76A7.34,7.34,0,0,0,100.3,139.33Z"/><path class="cls-12" d="M110.87,121.92a6.12,6.12,0,0,1,2-.79,2.15,2.15,0,0,1,1.49.23,2.4,2.4,0,0,1,1,1.32,7.51,7.51,0,0,1,.33,2.45,11.35,11.35,0,0,1-.53,3.55,9,9,0,0,1-1.48,2.82l2.09,5a.58.58,0,0,1,0,.26,1,1,0,0,1-.11.46.62.62,0,0,1-.26.32l-2.3,1.33c-.22.13-.39.15-.48,0a1.27,1.27,0,0,1-.23-.34l-1.88-4.49L109,135v5.57a1.37,1.37,0,0,1-.14.58.86.86,0,0,1-.32.39l-2.22,1.28a.25.25,0,0,1-.32,0,.57.57,0,0,1-.13-.42V125.53A1.31,1.31,0,0,1,106,125a.86.86,0,0,1,.32-.39Zm-1.91,9,1.91-1.1a3.72,3.72,0,0,0,1.18-1.09,3.2,3.2,0,0,0,.46-1.78c0-.73-.16-1.15-.46-1.25a1.53,1.53,0,0,0-1.18.27l-1.91,1.1Z"/></g></g></g></svg>