<svg xmlns="http://www.w3.org/2000/svg" xmlns:xlink="http://www.w3.org/1999/xlink" viewBox="0 0 248.13 356.33"><defs><style>.cls-1{fill:#f0f0f0;}.cls-2{fill:#fafafa;}.cls-3{fill:#e0e0e0;}.cls-4{fill:url(#linear-gradient);}.cls-5{opacity:0.1;}.cls-6{fill:url(#New_Gradient_Swatch_1);}.cls-7{fill:#fff;}.cls-8{fill:#e6e6e6;}.cls-12,.cls-9{fill:#455a64;}.cls-11,.cls-9{opacity:0.5;}.cls-10{fill:none;stroke:#e0e0e0;stroke-miterlimit:10;stroke-width:0.81px;}.cls-13{fill:url(#New_Gradient_Swatch_1-2);}.cls-14{fill:url(#New_Gradient_Swatch_1-3);}.cls-15{fill:url(#New_Gradient_Swatch_1-4);}.cls-16{fill:url(#New_Gradient_Swatch_1-5);}.cls-17{fill:url(#New_Gradient_Swatch_1-6);}.cls-18{fill:url(#New_Gradient_Swatch_1-7);}</style><linearGradient id="linear-gradient" y1="82.66" x2="248.13" y2="82.66" gradientUnits="userSpaceOnUse"><stop offset="0" stop-color="#ff4420"/><stop offset="1" stop-color="#ddba44"/></linearGradient><linearGradient id="New_Gradient_Swatch_1" x1="4.38" y1="80.46" x2="248.13" y2="80.46" gradientUnits="userSpaceOnUse"><stop offset="0" stop-color="#ff4420"/><stop offset="1" stop-color="#de4"/></linearGradient><linearGradient id="New_Gradient_Swatch_1-2" x1="149.55" y1="97.46" x2="161.25" y2="97.46" xlink:href="#New_Gradient_Swatch_1"/><linearGradient id="New_Gradient_Swatch_1-3" x1="23.48" y1="167.73" x2="38.46" y2="167.73" xlink:href="#New_Gradient_Swatch_1"/><linearGradient id="New_Gradient_Swatch_1-4" x1="228.63" y1="52.29" x2="237.4" y2="52.29" xlink:href="#New_Gradient_Swatch_1"/><linearGradient id="New_Gradient_Swatch_1-5" x1="211.71" y1="62.24" x2="218.52" y2="62.24" xlink:href="#New_Gradient_Swatch_1"/><linearGradient id="New_Gradient_Swatch_1-6" x1="213.96" y1="66.63" x2="216.26" y2="66.63" xlink:href="#New_Gradient_Swatch_1"/><linearGradient id="New_Gradient_Swatch_1-7" x1="194.26" y1="73.2" x2="199.31" y2="73.2" xlink:href="#New_Gradient_Swatch_1"/></defs><g id="Layer_2" data-name="Layer 2"><g id="Window"><g id="Window-2" data-name="Window"><path class="cls-1" d="M6.71,355.75a4.05,4.05,0,0,1-1.83.55,4.55,4.55,0,0,1-2.68-.47A5,5,0,0,1,0,351.88V170.28l4.38,2.53V354.4c0,1.05.53,1.66,1.29,1.66A2.32,2.32,0,0,0,6.71,355.75Z"/><path class="cls-2" d="M5.67,355.53c-.68,0-.75-.79-.75-1.13V158l6.15-3.55c.75-.43,1.35-2.37,2.56-6.69.64-2.28,1.61-5.71,2.11-6.1l55.51-32.05a13.9,13.9,0,0,1,2.15,3.19c1.36,2.39,2.17,3.74,3.09,3.74a.88.88,0,0,0,.44-.12L247.59,17.84V213.65a4.62,4.62,0,0,1-2.05,3.57L6.44,355.28A1.61,1.61,0,0,1,5.67,355.53Z"/><path class="cls-3" d="M247.05,18.77V213.65a4.09,4.09,0,0,1-1.78,3.11L6.17,354.81a1.05,1.05,0,0,1-.5.18c-.21,0-.21-.57-.21-.59V158.27l5.88-3.39c.93-.54,1.51-2.35,2.81-7A34.8,34.8,0,0,1,16.08,142l55.1-31.81a25.13,25.13,0,0,1,1.75,2.8c1.5,2.64,2.34,4,3.56,4a1.38,1.38,0,0,0,.71-.19L247.05,18.77M71.59,110h0M248.13,16.9l-171.47,99a.34.34,0,0,1-.17,0c-1.31,0-3.95-7-5.26-7a.41.41,0,0,0-.18,0l-55.59,32.1c-1.29.74-3.38,12-4.66,12.79l-6.42,3.7V354.4c0,1.05.53,1.66,1.29,1.66a2.18,2.18,0,0,0,1-.31L245.8,217.69a5.11,5.11,0,0,0,2.33-4V16.9Z"/><path class="cls-4" d="M2.19,164.82A5,5,0,0,1,0,160.87V142.68a5.15,5.15,0,0,1,2.34-4L241.43.58A5,5,0,0,1,246,.5a5,5,0,0,1,2.18,4v18.2a5.11,5.11,0,0,1-2.33,4L6.71,164.74A5,5,0,0,1,2.19,164.82Z"/><path class="cls-5" d="M5.06,142.9a4.74,4.74,0,0,0-.68,2.3v27.61L0,170.28v-27.6c0-.1,0-.19,0-.29a4.85,4.85,0,0,1,.09-.57,5.33,5.33,0,0,1,.59-1.45Z"/><path class="cls-6" d="M248.13,4.69V17.14l-171.47,99c-1.28.74-2.32.14-2.32-1.35V110.1c0-1.49-1-2.09-2.34-1.35L15.46,141.4a5.15,5.15,0,0,0-2.34,4v4.71a5.15,5.15,0,0,1-2.32,4l-6.42,3.7V145.44a5.17,5.17,0,0,1,2.33-4L245.8,3.34C247.09,2.6,248.13,3.2,248.13,4.69Z"/><path class="cls-7" d="M237.2,12.26c1.62-.94,2.94-.18,2.94,1.69A6.48,6.48,0,0,1,237.2,19c-1.62.94-2.93.18-2.93-1.69A6.47,6.47,0,0,1,237.2,12.26Z"/><path class="cls-7" d="M226.65,18.35c1.61-.94,2.93-.18,2.93,1.69a6.51,6.51,0,0,1-2.93,5.08c-1.62.93-2.94.18-2.94-1.69A6.48,6.48,0,0,1,226.65,18.35Z"/><path class="cls-7" d="M216.09,24.43c1.62-.93,2.93-.17,2.93,1.7a6.49,6.49,0,0,1-2.93,5.08c-1.62.93-2.93.17-2.93-1.7A6.49,6.49,0,0,1,216.09,24.43Z"/><path class="cls-8" d="M248.13,16.9V32.06L4.38,172.81V157.65l4.79-2.77c1.28-.75,1.71-1.88,2.33-4l1.62-5.64c.51-2,1.05-3.3,2.34-4l55.59-32.1c1.3-.74,2.3-.83,3.29.8l2,3.62c.73,1.26,1.1,2,2.38,1.26Z"/><polygon class="cls-3" points="4.38 157.65 4.38 172.81 0 170.28 0 155.13 4.38 157.65"/><path class="cls-9" d="M15.07,158.74l-3.66,2.11,1.4-2.68a.65.65,0,0,0,0-.65c-.1-.13-.29,0-.41.19l-2,3.82v0a.58.58,0,0,0,0,.14.08.08,0,0,0,0,0,.75.75,0,0,0,0,.2.43.43,0,0,0,0,.17s0,0,0,0a.22.22,0,0,0,0,.08h0l2,1.53a.17.17,0,0,0,.19,0,.53.53,0,0,0,.22-.28.59.59,0,0,0,0-.63l-1.4-1.07,3.66-2.11a.79.79,0,0,0,.3-.62C15.37,158.78,15.23,158.65,15.07,158.74Z"/><path class="cls-9" d="M18.13,157l3.66-2.11-1.4-1.08c-.12-.09-.13-.37,0-.62s.3-.38.42-.28l2,1.52h0a.22.22,0,0,1,.05.08l0,0a.79.79,0,0,1,0,.17,1.23,1.23,0,0,1,0,.19l0,.05a.58.58,0,0,1-.05.14v0l-2,3.81a.58.58,0,0,1-.2.23.17.17,0,0,1-.22,0,.69.69,0,0,1,0-.65l1.4-2.69-3.66,2.11c-.17.1-.3,0-.3-.28A.75.75,0,0,1,18.13,157Z"/><path class="cls-9" d="M30.13,146.44c0-.22-.22-.19-.31.05l-.51,1.22c-.85-.09-1.89.75-2.58,2.23-.91,1.92-.91,4.18,0,5.06a1.29,1.29,0,0,0,1.64.09,4.45,4.45,0,0,0,1.64-2,.6.6,0,0,0,0-.64c-.11-.11-.3,0-.41.24-.68,1.43-1.78,2.07-2.46,1.42s-.67-2.35,0-3.78c.48-1,1.18-1.62,1.78-1.66l-.38.92c-.1.24,0,.47.15.36l1.49-1a.52.52,0,0,0,.17-.41Z"/><path class="cls-9" d="M69.45,116l1.33-2.83a.85.85,0,0,0,0-.88c-.15-.15-.41,0-.57.33l-1.33,2.83-1.33-1.29c-.16-.15-.42,0-.58.33a.9.9,0,0,0,0,.88l1.34,1.29L67,119.46a.9.9,0,0,0,0,.88.26.26,0,0,0,.29,0,.81.81,0,0,0,.29-.35l1.33-2.82,1.33,1.28a.24.24,0,0,0,.29,0,.8.8,0,0,0,.28-.35.85.85,0,0,0,0-.88Z"/><path class="cls-2" d="M35,149.91V145.2a5.17,5.17,0,0,1,2.33-4L232.69,28.4c1.28-.74,2.33-.14,2.33,1.35v4.71a5.17,5.17,0,0,1-2.33,4L37.31,151.26C36,152,35,151.4,35,149.91Z"/><path class="cls-10" d="M231.33,30.9l.61,1.3a.14.14,0,0,0,.2.07l1.37-.52c.22-.08.3.22.14.52l-1,1.86a.57.57,0,0,0-.07.35l.23,1.68c0,.27-.19.62-.38.6l-1.23-.15a.28.28,0,0,0-.24.14l-1.23,1.57c-.19.24-.42.15-.38-.16l.23-1.95a.29.29,0,0,0-.07-.27l-1-.71c-.16-.12-.08-.52.14-.69l1.37-1a.67.67,0,0,0,.2-.31l.61-2C231,30.85,231.23,30.69,231.33,30.9Z"/><g class="cls-11"><path class="cls-12" d="M237.76,27.83a.82.82,0,0,1-.7-.41.81.81,0,0,1,.3-1.1l6.56-3.78a.79.79,0,0,1,1.1.29.81.81,0,0,1-.29,1.1l-6.56,3.79A.87.87,0,0,1,237.76,27.83Z"/><path class="cls-12" d="M237.76,31.62a.82.82,0,0,1-.7-.41.81.81,0,0,1,.3-1.1l6.56-3.79a.81.81,0,0,1,.81,1.4l-6.56,3.79A.87.87,0,0,1,237.76,31.62Z"/><path class="cls-12" d="M237.76,35.4a.81.81,0,0,1-.7-.4.8.8,0,0,1,.3-1.1l6.56-3.79a.81.81,0,0,1,.81,1.4l-6.56,3.79A.86.86,0,0,1,237.76,35.4Z"/></g><g id="Search"><g class="cls-11"><path class="cls-12" d="M11.57,177.05a.81.81,0,0,1-.4-1.51l6.56-3.78a.8.8,0,1,1,.8,1.39L12,176.94A.87.87,0,0,1,11.57,177.05Z"/><path class="cls-12" d="M11.57,180.84a.81.81,0,0,1-.4-1.51l6.56-3.79a.81.81,0,0,1,.8,1.4L12,180.73A.87.87,0,0,1,11.57,180.84Z"/><path class="cls-12" d="M11.57,184.62a.8.8,0,0,1-.4-1.5l6.56-3.79a.81.81,0,0,1,.8,1.4L12,184.52A.86.86,0,0,1,11.57,184.62Z"/></g><path class="cls-8" d="M69.75,143.65v5.81c0,1.19.85,1.68,1.87,1.08l77.93-45V95.36L71.62,140.42A4.13,4.13,0,0,0,69.75,143.65Z"/><path class="cls-13" d="M159.38,89.69c1-.6,1.87-.12,1.87,1.08v5.81a4.15,4.15,0,0,1-1.87,3.24l-9.83,5.67V95.36Z"/><path class="cls-2" d="M158.65,97.65l-1.1-.34a5.62,5.62,0,0,0,.18-1.41,2.56,2.56,0,0,0-1-2.34,1.55,1.55,0,0,0-1.6.08,5.58,5.58,0,0,0-2.19,4.55,2.59,2.59,0,0,0,1,2.34,1.34,1.34,0,0,0,.7.19,1.85,1.85,0,0,0,.9-.26,4.67,4.67,0,0,0,1.77-2.37l1.1.34.12,0a.41.41,0,0,0,.39-.29A.42.42,0,0,0,158.65,97.65Zm-3.52,2.1a.73.73,0,0,1-.78.08,1.89,1.89,0,0,1-.59-1.64,4.87,4.87,0,0,1,1.78-3.85,1,1,0,0,1,.49-.16.57.57,0,0,1,.29.08,1.9,1.9,0,0,1,.6,1.64A4.88,4.88,0,0,1,155.13,99.75Z"/><path class="cls-14" d="M36.6,159.43l-11.26,6.5a4.12,4.12,0,0,0-1.86,3.23V175c0,1.19.83,1.67,1.86,1.07l11.26-6.5a4.12,4.12,0,0,0,1.86-3.23V160.5C38.46,159.31,37.63,158.83,36.6,159.43Z"/><path class="cls-15" d="M233,47.23a9.67,9.67,0,0,0-4.39,7.59c0,2.8,2,3.93,4.39,2.53a9.67,9.67,0,0,0,4.38-7.59C237.4,47,235.44,45.83,233,47.23Z"/><path class="cls-7" d="M232.51,51.69a.77.77,0,0,1-.39-.11.93.93,0,0,1-.42-.87,2.5,2.5,0,0,1,1.15-2h0a.86.86,0,0,1,1.39.8,2.5,2.5,0,0,1-1.15,2A1.15,1.15,0,0,1,232.51,51.69Z"/><path class="cls-7" d="M234.75,52a1.5,1.5,0,0,0-1.54.12l-.64.36a4.29,4.29,0,0,0-2,3.42v.45a2.42,2.42,0,0,0,2.42-.26,7,7,0,0,0,2.42-2.53v-.11A1.59,1.59,0,0,0,234.75,52Z"/><path class="cls-16" d="M217.51,60.79V59.24c0-1.77-1.07-2.58-2.4-1.81h0a5.74,5.74,0,0,0-2.4,4.58v1.38a5.57,5.57,0,0,1-.8,2.71h0a1.51,1.51,0,0,0-.19.71h0c0,.45.27.65.6.46l5.6-3.24a1.43,1.43,0,0,0,.61-1.15h0a.56.56,0,0,0-.18-.47h0A1.64,1.64,0,0,1,217.51,60.79Z"/><path class="cls-17" d="M216.26,65.46a2.73,2.73,0,0,1-1.15,2.2c-.63.37-1.15,0-1.15-.87Z"/><path class="cls-18" d="M196.83,68.15a2.36,2.36,0,0,1,1-.34,1.28,1.28,0,0,1,.79.15,1.31,1.31,0,0,1,.53.62,2.51,2.51,0,0,1,.19,1.06,3.72,3.72,0,0,1-.11,1,5,5,0,0,1-.28.85,5.62,5.62,0,0,1-.37.78c-.13.24-.27.48-.39.72a6.44,6.44,0,0,0-.34.7,3,3,0,0,0-.21.69,1.5,1.5,0,0,1-.09.32.39.39,0,0,1-.16.21l-1.12.65a.14.14,0,0,1-.18,0,.28.28,0,0,1-.07-.22,3.44,3.44,0,0,1,.12-.91,7.1,7.1,0,0,1,.31-.85c.12-.28.26-.54.4-.8s.28-.49.4-.72a4.24,4.24,0,0,0,.31-.65,1.71,1.71,0,0,0,.13-.6c0-.27-.07-.45-.21-.53s-.34,0-.62.13a1.6,1.6,0,0,0-.6.54,2.06,2.06,0,0,0-.26.57c-.06.18-.1.35-.14.5a.47.47,0,0,1-.24.32l-1.12.65a.12.12,0,0,1-.15,0,.24.24,0,0,1-.06-.19,4.82,4.82,0,0,1,.19-1.15,6.7,6.7,0,0,1,1.3-2.52A4,4,0,0,1,196.83,68.15Zm.8,9.23a.68.68,0,0,1-.08.31.4.4,0,0,1-.17.22l-1.16.67a.15.15,0,0,1-.18,0,.32.32,0,0,1-.07-.23V76.91a.74.74,0,0,1,.07-.32.48.48,0,0,1,.18-.21l1.16-.67c.07,0,.13,0,.17,0a.3.3,0,0,1,.08.23Z"/></g></g></g></g></svg>