<svg xmlns="http://www.w3.org/2000/svg" xmlns:xlink="http://www.w3.org/1999/xlink" viewBox="0 0 60.04 100.88"><defs><style>.cls-1{fill:url(#New_Gradient_Swatch_1);}.cls-2{fill:url(#New_Gradient_Swatch_1-2);}.cls-3{opacity:0.2;}.cls-4{fill:none;stroke:#3c3e49;stroke-linecap:round;stroke-miterlimit:10;stroke-width:2px;}</style><linearGradient id="New_Gradient_Swatch_1" y1="50.44" x2="60.04" y2="50.44" gradientUnits="userSpaceOnUse"><stop offset="0" stop-color="#ff4420"/><stop offset="1" stop-color="#de4"/></linearGradient><linearGradient id="New_Gradient_Swatch_1-2" x1="7.23" y1="52.47" x2="60.04" y2="52.47" xlink:href="#New_Gradient_Swatch_1"/></defs><g id="Layer_2" data-name="Layer 2"><g id="Speech_Bubble" data-name="Speech Bubble"><g id="Speech_Bubble-2" data-name="Speech Bubble"><g id="Speech_Bubble-3" data-name="Speech Bubble"><path class="cls-1" d="M51.51.31l-50.22,29A2.87,2.87,0,0,0,0,31.55v64.2A2.82,2.82,0,0,0,1.3,98l4.63,2.6a2.9,2.9,0,0,0,2.6,0l50.22-29A2.87,2.87,0,0,0,60,69.33V5.12a2.8,2.8,0,0,0-1.3-2.22L54.11.3A2.9,2.9,0,0,0,51.51.31Z"/><path class="cls-2" d="M7.23,99.82V35.62a2.84,2.84,0,0,1,1.3-2.24l50.22-29C59.46,4,60,4.3,60,5.12V69.33a2.87,2.87,0,0,1-1.29,2.24l-50.22,29C7.81,101,7.23,100.64,7.23,99.82Z"/><path class="cls-3" d="M8.53,100.56a3,3,0,0,1-2.6,0L1.3,98A2.83,2.83,0,0,1,0,95.76V31.55a2.68,2.68,0,0,1,.41-1.32l7.21,4.11a2.58,2.58,0,0,0-.39,1.28v64.2C7.23,100.57,7.77,101,8.53,100.56Z"/></g><g id="Dead_Emoji" data-name="Dead Emoji"><line class="cls-4" x1="17.72" y1="44.45" x2="25.18" y2="51.63"/><line class="cls-4" x1="17.72" y1="55.94" x2="25.18" y2="40.15"/><line class="cls-4" x1="42.09" y1="30.38" x2="49.56" y2="37.56"/><line class="cls-4" x1="42.09" y1="41.87" x2="49.56" y2="26.07"/><line class="cls-4" x1="17.39" y1="73.84" x2="49.89" y2="55.08"/><path class="cls-4" d="M37.7,62.12v9.07c0,2.76,1.82,4,4.06,2.65a9.25,9.25,0,0,0,4.06-7.34V57.43"/><line class="cls-4" x1="41.76" y1="59.77" x2="41.76" y2="68.53"/></g></g></g></g></svg>