<svg xmlns="http://www.w3.org/2000/svg" xmlns:xlink="http://www.w3.org/1999/xlink" viewBox="0 0 232.45 291.29"><defs><style>.cls-1{fill:#27debf;}.cls-2{fill:#ebebeb;}.cls-3{fill:url(#New_Gradient_Swatch_2);}.cls-4{fill:url(#New_Gradient_Swatch_2-2);}.cls-5{fill:#fafafa;}.cls-6{fill:url(#New_Gradient_Swatch_2-3);}.cls-7{fill:#e6e6e6;}.cls-15,.cls-16,.cls-8{fill:#fff;}.cls-11,.cls-9{fill:#455a64;}.cls-10,.cls-9{opacity:0.5;}.cls-12{fill:url(#New_Gradient_Swatch_2-4);}.cls-13{fill:url(#New_Gradient_Swatch_2-5);}.cls-14,.cls-21,.cls-22,.cls-23,.cls-24,.cls-26,.cls-27,.cls-28,.cls-33{opacity:0.15;}.cls-15{opacity:0.4;}.cls-16{opacity:0.7;}.cls-17,.cls-25{fill:url(#New_Gradient_Swatch_2-6);}.cls-18{fill:url(#New_Gradient_Swatch_2-7);}.cls-19,.cls-20,.cls-41,.cls-43{opacity:0.55;}.cls-19,.cls-24{fill:url(#New_Gradient_Swatch_2-8);}.cls-20,.cls-26{fill:url(#New_Gradient_Swatch_2-9);}.cls-21{fill:url(#New_Gradient_Swatch_2-10);}.cls-22{fill:url(#New_Gradient_Swatch_2-11);}.cls-23{fill:url(#New_Gradient_Swatch_2-12);}.cls-25,.cls-36,.cls-42,.cls-44{opacity:0.65;}.cls-27{fill:url(#New_Gradient_Swatch_2-16);}.cls-28{fill:url(#New_Gradient_Swatch_2-17);}.cls-29,.cls-30{fill:url(#New_Gradient_Swatch_2-18);}.cls-30,.cls-48,.cls-52,.cls-54,.cls-56,.cls-57{opacity:0.35;}.cls-31{fill:url(#New_Gradient_Swatch_2-20);}.cls-32{fill:url(#New_Gradient_Swatch_2-21);}.cls-33{fill:url(#New_Gradient_Swatch_2-22);}.cls-34{fill:url(#New_Gradient_Swatch_2-23);}.cls-35,.cls-36{fill:url(#New_Gradient_Swatch_2-24);}.cls-37,.cls-42{fill:url(#New_Gradient_Swatch_2-26);}.cls-38,.cls-43{fill:url(#New_Gradient_Swatch_2-27);}.cls-39,.cls-44{fill:url(#New_Gradient_Swatch_2-28);}.cls-40,.cls-41{fill:url(#New_Gradient_Swatch_2-29);}.cls-45{opacity:0.2;fill:url(#New_Gradient_Swatch_2-34);}.cls-46{opacity:0.05;fill:url(#New_Gradient_Swatch_2-35);}.cls-47,.cls-49,.cls-50{opacity:0.1;}.cls-47{fill:url(#New_Gradient_Swatch_2-36);}.cls-48,.cls-51{fill:url(#New_Gradient_Swatch_2-37);}.cls-49{fill:url(#New_Gradient_Swatch_2-38);}.cls-50{fill:url(#New_Gradient_Swatch_2-39);}.cls-52{fill:url(#New_Gradient_Swatch_2-42);}.cls-53,.cls-54{fill:url(#New_Gradient_Swatch_2-43);}.cls-55,.cls-56{fill:url(#New_Gradient_Swatch_2-45);}.cls-57{fill:url(#New_Gradient_Swatch_2-47);}.cls-58,.cls-59{fill:url(#New_Gradient_Swatch_2-48);}.cls-59{opacity:0.45;}</style><linearGradient id="New_Gradient_Swatch_2" y1="145.41" x2="4.7" y2="145.41" gradientUnits="userSpaceOnUse"><stop offset="0" stop-color="#ff4420"/><stop offset="1" stop-color="#de4"/></linearGradient><linearGradient id="New_Gradient_Swatch_2-2" x1="0.62" y1="66.94" x2="231.61" y2="66.94" xlink:href="#New_Gradient_Swatch_2"/><linearGradient id="New_Gradient_Swatch_2-3" x1="295.36" y1="74.33" x2="295.86" y2="74.33" xlink:href="#New_Gradient_Swatch_2"/><linearGradient id="New_Gradient_Swatch_2-4" x1="10.17" y1="109.22" x2="224.74" y2="109.22" xlink:href="#New_Gradient_Swatch_2"/><linearGradient id="New_Gradient_Swatch_2-5" x1="14.24" y1="110.48" x2="225.47" y2="110.48" xlink:href="#New_Gradient_Swatch_2"/><linearGradient id="New_Gradient_Swatch_2-6" x1="35.14" y1="209.7" x2="54.43" y2="209.7" xlink:href="#New_Gradient_Swatch_2"/><linearGradient id="New_Gradient_Swatch_2-7" x1="13.9" y1="206.73" x2="66.91" y2="206.73" xlink:href="#New_Gradient_Swatch_2"/><linearGradient id="New_Gradient_Swatch_2-8" x1="34.77" y1="233.99" x2="41.32" y2="233.99" xlink:href="#New_Gradient_Swatch_2"/><linearGradient id="New_Gradient_Swatch_2-9" x1="59.23" y1="192.29" x2="66.91" y2="192.29" xlink:href="#New_Gradient_Swatch_2"/><linearGradient id="New_Gradient_Swatch_2-10" x1="32.06" y1="187.35" x2="41.29" y2="187.35" xlink:href="#New_Gradient_Swatch_2"/><linearGradient id="New_Gradient_Swatch_2-11" x1="18.27" y1="204.25" x2="30.27" y2="204.25" xlink:href="#New_Gradient_Swatch_2"/><linearGradient id="New_Gradient_Swatch_2-12" x1="18.25" y1="230.84" x2="30.23" y2="230.84" xlink:href="#New_Gradient_Swatch_2"/><linearGradient id="New_Gradient_Swatch_2-16" x1="46.29" y1="182.15" x2="58.69" y2="182.15" xlink:href="#New_Gradient_Swatch_2"/><linearGradient id="New_Gradient_Swatch_2-17" x1="14.13" y1="213.94" x2="28.53" y2="213.94" xlink:href="#New_Gradient_Swatch_2"/><linearGradient id="New_Gradient_Swatch_2-18" x1="48.04" y1="182.12" x2="48.07" y2="182.12" xlink:href="#New_Gradient_Swatch_2"/><linearGradient id="New_Gradient_Swatch_2-20" x1="22.33" y1="209.7" x2="67.16" y2="209.7" xlink:href="#New_Gradient_Swatch_2"/><linearGradient id="New_Gradient_Swatch_2-21" x1="18.25" y1="198.18" x2="31.65" y2="198.18" xlink:href="#New_Gradient_Swatch_2"/><linearGradient id="New_Gradient_Swatch_2-22" x1="23.23" y1="194.72" x2="36.37" y2="194.72" xlink:href="#New_Gradient_Swatch_2"/><linearGradient id="New_Gradient_Swatch_2-23" x1="32.87" y1="181.71" x2="48.04" y2="181.71" xlink:href="#New_Gradient_Swatch_2"/><linearGradient id="New_Gradient_Swatch_2-24" x1="79.38" y1="210.45" x2="91.91" y2="210.45" xlink:href="#New_Gradient_Swatch_2"/><linearGradient id="New_Gradient_Swatch_2-26" x1="85.68" y1="223.41" x2="88.93" y2="223.41" xlink:href="#New_Gradient_Swatch_2"/><linearGradient id="New_Gradient_Swatch_2-27" x1="96.31" y1="205.28" x2="99.65" y2="205.28" xlink:href="#New_Gradient_Swatch_2"/><linearGradient id="New_Gradient_Swatch_2-28" x1="73.09" y1="226.19" x2="79.04" y2="226.19" xlink:href="#New_Gradient_Swatch_2"/><linearGradient id="New_Gradient_Swatch_2-29" x1="65.07" y1="207.1" x2="98.26" y2="207.1" xlink:href="#New_Gradient_Swatch_2"/><linearGradient id="New_Gradient_Swatch_2-34" x1="65.12" y1="218.71" x2="74.83" y2="218.71" xlink:href="#New_Gradient_Swatch_2"/><linearGradient id="New_Gradient_Swatch_2-35" x1="68.5" y1="215.64" x2="74.93" y2="215.64" xlink:href="#New_Gradient_Swatch_2"/><linearGradient id="New_Gradient_Swatch_2-36" x1="66.69" y1="206.63" x2="76.91" y2="206.63" xlink:href="#New_Gradient_Swatch_2"/><linearGradient id="New_Gradient_Swatch_2-37" x1="65.07" y1="210.03" x2="73.03" y2="210.03" xlink:href="#New_Gradient_Swatch_2"/><linearGradient id="New_Gradient_Swatch_2-38" x1="71.71" y1="200.54" x2="79.04" y2="200.54" xlink:href="#New_Gradient_Swatch_2"/><linearGradient id="New_Gradient_Swatch_2-39" x1="80.58" y1="192.87" x2="89.11" y2="192.87" xlink:href="#New_Gradient_Swatch_2"/><linearGradient id="New_Gradient_Swatch_2-42" x1="66.65" y1="205.46" x2="66.69" y2="205.46" xlink:href="#New_Gradient_Swatch_2"/><linearGradient id="New_Gradient_Swatch_2-43" x1="71.76" y1="196.41" x2="82.27" y2="196.41" xlink:href="#New_Gradient_Swatch_2"/><linearGradient id="New_Gradient_Swatch_2-45" x1="82.78" y1="189.99" x2="93.04" y2="189.99" xlink:href="#New_Gradient_Swatch_2"/><linearGradient id="New_Gradient_Swatch_2-47" x1="68.36" y1="212.86" x2="68.54" y2="212.86" xlink:href="#New_Gradient_Swatch_2"/><linearGradient id="New_Gradient_Swatch_2-48" x1="71.4" y1="210.45" x2="99.83" y2="210.45" xlink:href="#New_Gradient_Swatch_2"/></defs><g id="Layer_2" data-name="Layer 2"><g id="Device"><g id="Device-2" data-name="Device"><path class="cls-1" d="M79.76,222.54a8,8,0,0,0-3.6,6.23c0,2.3,1.61,3.23,3.6,2.08a8,8,0,0,0,3.59-6.23C83.35,222.33,81.74,221.4,79.76,222.54Z"/></g></g><g id="Windows"><path class="cls-1" d="M232,2.86a1.32,1.32,0,0,1,.16.25A1.32,1.32,0,0,0,232,2.86Z"/><path class="cls-1" d="M232.22,3.27a1.69,1.69,0,0,1,.11.34A1.69,1.69,0,0,0,232.22,3.27Z"/><path class="cls-2" d="M4.07,289.32v-153a6.27,6.27,0,0,1,2.84-4.92L229.61,2.77a2,2,0,0,1,2-.2c-.54-.31-3.52-2-4-2.33a1.94,1.94,0,0,0-2.09.15L2.84,129A6.27,6.27,0,0,0,0,133.9v153a2,2,0,0,0,.83,1.84l4.06,2.34h0A1.93,1.93,0,0,1,4.07,289.32Z"/><path class="cls-3" d="M.62,131.52A5.58,5.58,0,0,0,0,133.9V157l4.06,2.35v-23a5.62,5.62,0,0,1,.63-2.41Z"/><path class="cls-4" d="M6.91,131.36,229.61,2.77a2,2,0,0,1,2-.2c-.54-.31-3.52-2-4-2.33a1.94,1.94,0,0,0-2.09.15L2.84,129a6,6,0,0,0-2.22,2.54l4.08,2.35h0A6,6,0,0,1,6.91,131.36Z"/><path class="cls-5" d="M232.45,4.39v153a6.28,6.28,0,0,1-2.84,4.92L6.91,290.94c-1.58.85-2.85.12-2.84-1.64v-153a6.27,6.27,0,0,1,2.84-4.92L229.61,2.75C231.18,1.84,232.45,2.58,232.45,4.39Z"/><path class="cls-1" d="M231.62,2.58h0a1.12,1.12,0,0,1,.2.17A1,1,0,0,0,231.62,2.58Z"/><path class="cls-1" d="M232.39,3.79a3,3,0,0,1,.06.62A3,3,0,0,0,232.39,3.79Z"/><path class="cls-5" d="M231.61,2.57Z"/><path class="cls-5" d="M232.33,3.61a1,1,0,0,1,.06.18A1,1,0,0,0,232.33,3.61Z"/><path class="cls-5" d="M232.12,3.11a.7.7,0,0,1,.1.16A.7.7,0,0,0,232.12,3.11Z"/><path class="cls-5" d="M231.81,2.74a.88.88,0,0,1,.15.12A.88.88,0,0,0,231.81,2.74Z"/><path class="cls-6" d="M232.45,4.41v10L4.07,146.28v-10a6.27,6.27,0,0,1,2.84-4.92L229.61,2.77C231.18,1.86,232.45,2.6,232.45,4.41Z"/><path class="cls-7" d="M232.44,14.42v13L4.06,159.31v-13l4.26-2.46c1.14-.66,1.52-1.66,2.06-3.59l1.45-5c.45-1.74.92-2.92,2.07-3.58l49.38-28.51c1.15-.66,2-.73,2.91.71L68,107.05c.65,1.12,1,1.78,2.11,1.12Z"/><path class="cls-8" d="M224.41,9.78c1.22-.7,2.21-.13,2.21,1.28a4.88,4.88,0,0,1-2.21,3.82c-1.22.7-2.21.13-2.21-1.27A4.88,4.88,0,0,1,224.41,9.78Z"/><path class="cls-8" d="M216.46,14.36c1.22-.7,2.21-.13,2.21,1.28a4.86,4.86,0,0,1-2.21,3.82c-1.22.71-2.21.14-2.21-1.27A4.9,4.9,0,0,1,216.46,14.36Z"/><path class="cls-8" d="M208.51,19c1.22-.71,2.21-.14,2.21,1.27a4.9,4.9,0,0,1-2.21,3.83c-1.22.7-2.21.13-2.21-1.28A4.86,4.86,0,0,1,208.51,19Z"/><path class="cls-9" d="M13.56,147.25l-3.25,1.88,1.24-2.38a.59.59,0,0,0,0-.59c-.09-.11-.26,0-.37.18l-1.76,3.39h0a.5.5,0,0,0,0,.13.08.08,0,0,1,0,0,1.11,1.11,0,0,0,0,.17.61.61,0,0,0,0,.15l0,0a.18.18,0,0,0,0,.07h0l1.76,1.35a.15.15,0,0,0,.18,0,.52.52,0,0,0,.19-.25c.1-.22.09-.47,0-.55l-1.24-1,3.25-1.87a.69.69,0,0,0,.26-.55C13.82,147.28,13.7,147.17,13.56,147.25Z"/><path class="cls-9" d="M16.27,145.69l3.25-1.88-1.24-.95c-.11-.08-.12-.33,0-.56s.26-.33.37-.25l1.76,1.36h0a.13.13,0,0,1,.05.07l0,0a.61.61,0,0,1,0,.15,1.1,1.1,0,0,1,0,.18s0,0,0,0a.61.61,0,0,1-.05.12v0l-1.76,3.39a.42.42,0,0,1-.18.19.13.13,0,0,1-.19,0,.57.57,0,0,1,0-.58l1.24-2.38-3.25,1.87c-.14.08-.26,0-.26-.25A.69.69,0,0,1,16.27,145.69Z"/><path class="cls-9" d="M26.93,136.33c0-.2-.19-.17-.28,0l-.44,1.09c-.76-.08-1.68.66-2.3,2-.81,1.71-.81,3.72,0,4.5a1.15,1.15,0,0,0,1.46.08,3.94,3.94,0,0,0,1.46-1.77.57.57,0,0,0,0-.57c-.1-.1-.27,0-.37.22-.6,1.27-1.58,1.83-2.18,1.25s-.6-2.08,0-3.35c.43-.91,1-1.44,1.58-1.47l-.34.82c-.08.21,0,.41.13.32l1.33-.87a.45.45,0,0,0,.15-.36Z"/><path class="cls-9" d="M61.85,109.27,63,106.76a.76.76,0,0,0,0-.78c-.14-.13-.37,0-.51.3l-1.18,2.5-1.19-1.14c-.14-.13-.36,0-.5.3a.76.76,0,0,0,0,.78l1.18,1.14-1.18,2.5a.78.78,0,0,0,0,.79.21.21,0,0,0,.25,0,.68.68,0,0,0,.25-.31l1.19-2.5,1.18,1.14a.21.21,0,0,0,.25,0,.64.64,0,0,0,.26-.31.76.76,0,0,0,0-.78Z"/><path class="cls-5" d="M31.24,139.41v-4.19a4.57,4.57,0,0,1,2.07-3.58l185.42-107c1.14-.66,2.07-.12,2.07,1.2V30a4.59,4.59,0,0,1-2.07,3.59l-185.42,107C32.17,141.27,31.24,140.73,31.24,139.41Z"/><path class="cls-7" d="M215.91,33.94a.54.54,0,0,1-.51-.68l.2-1.69-.79-.57a.59.59,0,0,1-.22-.48,1,1,0,0,1,.34-.74l1.22-.93a.31.31,0,0,0,0-.09l.54-1.78a.77.77,0,0,1,.63-.59.49.49,0,0,1,.49.29l.45,1,1-.39a.5.5,0,0,1,.57.13.78.78,0,0,1,0,.86L219,29.89l.18,1.58a1,1,0,0,1-.26.76.57.57,0,0,1-.5.19l-1-.12-1.07,1.37A.67.67,0,0,1,215.91,33.94Zm-.56-3.48.78.56a.62.62,0,0,1,.22.59l-.13,1.07.69-.87a.61.61,0,0,1,.56-.26l1,.12a.19.19,0,0,0,0-.09l-.21-1.5a.82.82,0,0,1,.11-.54l.75-1.41-.75.29a.5.5,0,0,1-.65-.26l-.34-.72L216.91,29a.87.87,0,0,1-.3.46l-1.22.94A.19.19,0,0,0,215.35,30.46Z"/><g class="cls-10"><path class="cls-11" d="M223.46,24.23a.69.69,0,0,1-.59-.33.67.67,0,0,1,.23-.92l5.41-3.25a.67.67,0,0,1,.92.23.68.68,0,0,1-.23.93l-5.41,3.24A.79.79,0,0,1,223.46,24.23Z"/><path class="cls-11" d="M223.42,27.34a.68.68,0,0,1-.58-.34.67.67,0,0,1,.24-.92l5.46-3.15a.67.67,0,0,1,.68,1.16l-5.46,3.15A.63.63,0,0,1,223.42,27.34Z"/><path class="cls-11" d="M223.42,30.49a.67.67,0,0,1-.34-1.25l5.46-3.16a.68.68,0,0,1,.68,1.17l-5.46,3.15A.72.72,0,0,1,223.42,30.49Z"/></g><polygon class="cls-7" points="4.06 146.28 0 143.94 0 156.96 4.06 159.31 4.06 146.28"/><path class="cls-12" d="M224.74,43.52a1.59,1.59,0,0,0-1.44.2L16.4,163.17a4.8,4.8,0,0,0-2.16,3.75V176a1.56,1.56,0,0,0,.59,1.38c-.37-.24-3.64-2.09-4-2.33a1.54,1.54,0,0,1-.62-1.39v-9.07a4.78,4.78,0,0,1,2.17-3.75L219.23,41.37a1.53,1.53,0,0,1,1.55-.14C221.13,41.44,224,43.05,224.74,43.52Z"/><path class="cls-13" d="M16.41,163.17,223.3,43.72c1.2-.69,2.17-.13,2.17,1.25V54a4.78,4.78,0,0,1-2.17,3.75L16.41,177.24c-1.2.69-2.17.13-2.17-1.25v-9.07A4.78,4.78,0,0,1,16.41,163.17Z"/><path class="cls-14" d="M14.88,164.79l-4.07-2.35a4.48,4.48,0,0,0-.64,2.14v9.07a1.54,1.54,0,0,0,.62,1.39c.4.24,3.67,2.09,4,2.33a1.56,1.56,0,0,1-.59-1.38v-9.07A4.45,4.45,0,0,1,14.88,164.79Z"/><path class="cls-15" d="M12.34,160.83a4.4,4.4,0,0,0-1.53,1.61l4.07,2.35a4.49,4.49,0,0,1,1.52-1.62"/><path class="cls-15" d="M223.3,43.72a1.59,1.59,0,0,1,1.44-.2c-.77-.47-3.61-2.08-4-2.29a1.53,1.53,0,0,0-1.55.14"/><path class="cls-5" d="M217.34,54.2a4.65,4.65,0,0,1-2.16,3.59L162.64,88.12c-1.2.69-2.17.2-2.17-1.09a4.64,4.64,0,0,1,2.17-3.6L215.18,53.1C216.37,52.41,217.34,52.9,217.34,54.2Z"/><path class="cls-11" d="M125.92,126.45l95.84-55.34c.91-.53,1.65-.15,1.65.83a3.53,3.53,0,0,1-1.65,2.74L125.92,130c-.91.53-1.65.15-1.65-.84A3.56,3.56,0,0,1,125.92,126.45Z"/><path class="cls-11" d="M125.92,133.6l95.84-55.34c.91-.53,1.65-.15,1.65.83a3.53,3.53,0,0,1-1.65,2.74l-95.84,55.35c-.91.53-1.65.15-1.65-.84A3.56,3.56,0,0,1,125.92,133.6Z"/><path class="cls-11" d="M125.92,140.75l95.84-55.34c.91-.53,1.65-.15,1.65.83A3.53,3.53,0,0,1,221.76,89l-95.84,55.35c-.91.53-1.65.15-1.65-.83A3.56,3.56,0,0,1,125.92,140.75Z"/><g id="Gears"><path class="cls-16" d="M12.34,186.19l93.16-53.8c1.19-.69,2.16-.13,2.16,1.25v84.12a4.8,4.8,0,0,1-2.16,3.75L12.34,275.3c-1.2.69-2.17.13-2.17-1.25V189.94A4.78,4.78,0,0,1,12.34,186.19Z"/><path class="cls-17" d="M53.57,200a5.4,5.4,0,0,0-.63-1,4.89,4.89,0,0,0-.37-.41,4.18,4.18,0,0,0-1.16-.85,3.89,3.89,0,0,0-.66-.29,5.5,5.5,0,0,0-2-.26,6.1,6.1,0,0,0-.72.08l-.52.1-.51.13c-.19.06-.38.12-.58.2l-.51.2a5.46,5.46,0,0,1,0,.58v.07c0,.11,0,.22,0,.34s0,.23,0,.35c0,6.17-4.34,13.68-9.68,16.77a11.1,11.1,0,0,1-1.18.61h0a4,4,0,0,0,.07.5,1.55,1.55,0,0,0,0,.21,5.23,5.23,0,0,0,.12.54,2.75,2.75,0,0,0,.14.49,4,4,0,0,0,.18.52,4.08,4.08,0,0,0,.19.42,5.24,5.24,0,0,0,.67,1.07,4.91,4.91,0,0,0,.75.76l.08.06.35.25.07,0a3.75,3.75,0,0,0,.44.24l.5.2a6.07,6.07,0,0,0,3.74-.06,11.68,11.68,0,0,0,1.11-.41c.38-.17.76-.37,1.15-.59,5.35-3.09,9.69-10.59,9.69-16.77A9.07,9.07,0,0,0,53.57,200Z"/><path class="cls-18" d="M60.32,189.2l-1,2a1.39,1.39,0,0,0,.08,1.24,11.4,11.4,0,0,1,1.13,2.52.61.61,0,0,0,.85.4l5.1-2.3a.54.54,0,0,1,.41,0ZM54,178.45l-3.7-2.14a.74.74,0,0,0-.26,0,2,2,0,0,0-.24,0,.23.23,0,0,0-.14,0,1.12,1.12,0,0,0-.24.19s-.1,0-.13.09l-3,4.53-3.81-2.2-.08,0-2.76-1.59h0a.35.35,0,0,0-.14,0,.55.55,0,0,0-.29.08l-3.94,2.28-.45.26h0l-1.24.71-.08.05a1.24,1.24,0,0,0-.22.18,1.82,1.82,0,0,0-.36.54h0a1.1,1.1,0,0,0-.1.34l-.58,6.38a.36.36,0,0,1,0,.1,1.07,1.07,0,0,1-.09.34,2.11,2.11,0,0,1-.48.75,34.07,34.07,0,0,0-3.19,3.37,1.17,1.17,0,0,1-1.13.32l-3.67-1.29a.82.82,0,0,0-.27,0l-.08,0-.08,0-.07,0-.14,0-.15.08a.34.34,0,0,0-.12.09.51.51,0,0,0-.13.16l-1.73,3L19,198.21l-.65,1.13a.83.83,0,0,0-.1.56h0a.83.83,0,0,0,.27.51l3,2.55a1.07,1.07,0,0,1,.14.16,1.13,1.13,0,0,1,.2.59,1.21,1.21,0,0,1-.06.38,34,34,0,0,0-1.32,4.44,2,2,0,0,1-.35.71,1.92,1.92,0,0,1-.39.41l-5.23,3.68a1.07,1.07,0,0,0-.19.18,2.71,2.71,0,0,0-.17.25h0a1.45,1.45,0,0,0-.23.7v6.62a.47.47,0,0,0,.2.42l6.64,3.84-2.42,4.88a.76.76,0,0,0,.3,1l9,5.23.12.05-.11-.06-.6-.35a.78.78,0,0,1-.31-1l3.41-6.86a.77.77,0,0,0,.08-.27,1.48,1.48,0,0,0-.16-1,11.71,11.71,0,0,1-1.14-2.53.61.61,0,0,0-.85-.4l-2.57,1.16L23,226.37a.45.45,0,0,1-.45,0h0a.46.46,0,0,1-.19-.42v-6.62a1.37,1.37,0,0,1,.22-.7,1.24,1.24,0,0,1,.36-.42l5.24-3.69a1.83,1.83,0,0,0,.38-.4,2,2,0,0,0,.35-.71A33.56,33.56,0,0,1,30.21,209a1.15,1.15,0,0,0,.06-.37h0a1.07,1.07,0,0,0-.35-.76l-3-2.54a.95.95,0,0,1-.19-1.09l1.2-2.08,1.49-2.58L31,196.9a.82.82,0,0,1,.65-.4h0a.66.66,0,0,1,.37,0l3.68,1.28a1,1,0,0,0,.66,0,1,1,0,0,0,.47-.31A35.2,35.2,0,0,1,40,194.11a2.06,2.06,0,0,0,.48-.74,1.68,1.68,0,0,0,.12-.45l.57-6.38a.88.88,0,0,1,.1-.34,1.44,1.44,0,0,1,.59-.73l1.08-.62,2.31-1.34,2.34-1.35a.49.49,0,0,1,.43,0l0,0a.45.45,0,0,1,.23.39l.29,2.92.27,2.65a.61.61,0,0,0,.76.54,10.74,10.74,0,0,1,2.76-.28,1.41,1.41,0,0,0,.8-.26,1.27,1.27,0,0,0,.31-.3l4.24-6.37a.64.64,0,0,1,.13-.15.77.77,0,0,1,.67-.17.44.44,0,0,1,.16.06ZM41.31,237.2a.35.35,0,0,1-.08-.13.59.59,0,0,1,0-.19l-.55-5.56a.6.6,0,0,0-.77-.54,11.65,11.65,0,0,1-2.76.28,1.42,1.42,0,0,0-1.11.55l-1.22,1.83,6.55,3.78S41.32,237.2,41.31,237.2Z"/><path class="cls-19" d="M41.23,237.07a.59.59,0,0,1,0-.19l-.55-5.56a.6.6,0,0,0-.77-.54,11.65,11.65,0,0,1-2.76.28,1.42,1.42,0,0,0-1.11.55l-1.22,1.83,6.55,3.78s0,0,0,0A.35.35,0,0,1,41.23,237.07Z"/><path class="cls-20" d="M60.32,189.2l-1,2a1.39,1.39,0,0,0,.08,1.24,11.4,11.4,0,0,1,1.13,2.52.61.61,0,0,0,.85.4l5.1-2.3a.54.54,0,0,1,.41,0Z"/><path class="cls-21" d="M41.29,186.2a.88.88,0,0,0-.1.34l-.57,6.38a1.68,1.68,0,0,1-.12.45l-8.42-4.87h0a2.55,2.55,0,0,0,.11-.33.36.36,0,0,0,0-.1l.58-6.38a1.12,1.12,0,0,1,.11-.34Z"/><path class="cls-22" d="M30.27,208.59l-8.43-4.87,0,0a1.18,1.18,0,0,0-.16-.57,1.07,1.07,0,0,0-.14-.16l-3-2.55a.83.83,0,0,1-.27-.51l8.43,4.87a.83.83,0,0,0,.27.51l3,2.54A1.07,1.07,0,0,1,30.27,208.59Z"/><path class="cls-23" d="M26.74,235.09a.78.78,0,0,0,.31,1l.6.35h0l-9-5.23a.76.76,0,0,1-.3-1l2.42-4.88,1.78,1h0a.45.45,0,0,0,.45,0l2.53-1.14L30.23,228a.77.77,0,0,1-.08.27Z"/><path class="cls-24" d="M41.31,237.2s0,0,0,0l-6.55-3.78L36,231.61a1.42,1.42,0,0,1,1.11-.55,11.65,11.65,0,0,0,2.76-.28.6.6,0,0,1,.77.54l.55,5.56a.59.59,0,0,0,0,.19A.35.35,0,0,0,41.31,237.2Z"/><path class="cls-25" d="M54.43,204.11c0,6.18-4.34,13.68-9.69,16.77-.39.22-.77.42-1.15.59a11.68,11.68,0,0,1-1.11.41,6.07,6.07,0,0,1-3.74.06l-.5-.2a3.75,3.75,0,0,1-.44-.24l-.07,0-.35-.25-.08-.06a4.91,4.91,0,0,1-.75-.76,5.24,5.24,0,0,1-.67-1.07,4.08,4.08,0,0,1-.19-.42,4,4,0,0,1-.18-.52,2.75,2.75,0,0,1-.14-.49,5.23,5.23,0,0,1-.12-.54,1.55,1.55,0,0,1,0-.21,4,4,0,0,1-.07-.5h0a11.1,11.1,0,0,0,1.18-.61c5.34-3.09,9.68-10.6,9.68-16.77,0-.12,0-.23,0-.35s0-.23,0-.34v-.07a5.44,5.44,0,0,0,0-.58h0l.51-.2c.2-.08.39-.14.58-.2l.51-.13.52-.1a6.1,6.1,0,0,1,.72-.08,5.5,5.5,0,0,1,2,.26,3.89,3.89,0,0,1,.66.29,4.18,4.18,0,0,1,1.16.85,4.89,4.89,0,0,1,.37.41,5.4,5.4,0,0,1,.63,1A9.07,9.07,0,0,1,54.43,204.11Z"/><path class="cls-26" d="M66.91,193a.54.54,0,0,0-.41,0l-5.1,2.3a.61.61,0,0,1-.85-.4,11.4,11.4,0,0,0-1.13-2.52,1.39,1.39,0,0,1-.08-1.24l1-2Z"/><path class="cls-27" d="M58.69,181.16a.44.44,0,0,0-.16-.06.77.77,0,0,0-.67.17.93.93,0,0,0-.13.15l-4.24,6.37a1.27,1.27,0,0,1-.31.3l-2.37-1.37-2.22-1.28-.29-2.92a.45.45,0,0,0-.23-.39l0,0-1.75-1,3-4.53a.68.68,0,0,1,.37-.28.23.23,0,0,1,.14,0,.67.67,0,0,1,.5.07l3.7,2.14Z"/><path class="cls-28" d="M28.53,214.12a1.83,1.83,0,0,1-.38.4l-5.24,3.69a1.24,1.24,0,0,0-.36.42l-8.42-4.86.17-.25a1.07,1.07,0,0,1,.19-.18l5.23-3.68a1.92,1.92,0,0,0,.39-.41Z"/><path class="cls-29" d="M48.07,182.12h0l0,0Z"/><path class="cls-30" d="M48.07,182.12h0l0,0Z"/><path class="cls-31" d="M67.16,200.07v-6.62a.42.42,0,0,0-.65-.42l-5.1,2.3a.61.61,0,0,1-.85-.4,11.5,11.5,0,0,0-1.14-2.53,1.4,1.4,0,0,1-.08-1.23l3.4-6.86a.77.77,0,0,0-.3-1l-3.69-2.13a.78.78,0,0,0-1,.24l-4.23,6.37a1.42,1.42,0,0,1-1.11.55,11.65,11.65,0,0,0-2.76.28.6.6,0,0,1-.77-.54l-.56-5.57a.43.43,0,0,0-.69-.35l-5.73,3.31a1.54,1.54,0,0,0-.68,1.07l-.58,6.38a2.11,2.11,0,0,1-.59,1.19,35.28,35.28,0,0,0-3.19,3.37,1.1,1.1,0,0,1-1.12.32L32,196.51a.91.91,0,0,0-1,.39l-4.21,7.3a.88.88,0,0,0,.18,1.08l3,2.55a1.1,1.1,0,0,1,.28,1.13,34.09,34.09,0,0,0-1.32,4.45,2.15,2.15,0,0,1-.74,1.11l-5.23,3.68a1.53,1.53,0,0,0-.59,1.13V226a.43.43,0,0,0,.65.42l5.11-2.3a.61.61,0,0,1,.85.39A10.84,10.84,0,0,0,30.07,227a1.39,1.39,0,0,1,.08,1.24l-3.4,6.86a.77.77,0,0,0,.3,1l3.69,2.13a.79.79,0,0,0,1-.24L36,231.6a1.45,1.45,0,0,1,1.11-.55,10.7,10.7,0,0,0,2.76-.28.61.61,0,0,1,.77.54l.56,5.57a.43.43,0,0,0,.69.36l5.73-3.31a1.59,1.59,0,0,0,.69-1.07l.57-6.38a2.12,2.12,0,0,1,.6-1.19,35.2,35.2,0,0,0,3.18-3.37,1.09,1.09,0,0,1,1.13-.32l3.68,1.28a.9.9,0,0,0,1-.38l4.21-7.3a.9.9,0,0,0-.18-1.09l-3-2.54a1.1,1.1,0,0,1-.29-1.14A35.13,35.13,0,0,0,60.61,206a2.13,2.13,0,0,1,.73-1.11l5.24-3.69A1.53,1.53,0,0,0,67.16,200.07ZM44.75,220.88c-5.35,3.09-9.69.58-9.69-5.59s4.34-13.69,9.69-16.77,9.68-.59,9.68,5.59S50.09,217.79,44.75,220.88Z"/><path class="cls-32" d="M25.2,192.74l-2-1.15a.77.77,0,0,0-.62.38l-1.26,2.2h0l-.51.87L19,198.21l-.65,1.13a.83.83,0,0,0-.1.56h0l8.43,4.87a.83.83,0,0,1,.08-.58l1.2-2.08,1.49-2.58L31,196.9a.82.82,0,0,1,.65-.4Z"/><path class="cls-33" d="M27.93,192.92a1,1,0,0,1-.65,0l-.28-.1h0l-3.38-1.18h0l-.07,0a.82.82,0,0,0-.31,0l.11.07h0l1.86,1.08.64.37h0l5.81,3.39h0a.66.66,0,0,1,.37,0l3.68,1.28a1,1,0,0,0,.66,0Z"/><path class="cls-34" d="M48,182.11a.49.49,0,0,0-.43,0l-2.34,1.35L43,184.85l-1.08.62a1.44,1.44,0,0,0-.59.73l-8.42-4.86h0a1.82,1.82,0,0,1,.36-.54,1.24,1.24,0,0,1,.22-.18l.08-.05,1.24-.71h0l.45-.26,3.94-2.28a.55.55,0,0,1,.29-.08.35.35,0,0,1,.14,0h0l2.76,1.59.08,0,3.81,2.2Z"/><path class="cls-35" d="M91.43,204.32A3.14,3.14,0,0,0,89,202.37h-.12l-.11,0H88.6a4.78,4.78,0,0,0-2.22.47c0,.27,0,.55,0,.85a13.87,13.87,0,0,1-6.29,10.9,7.59,7.59,0,0,1-.74.39,5,5,0,0,0,.43,1.64,3.15,3.15,0,0,0,3,2h.29l.33,0,.28,0,.12,0,.17,0A8.9,8.9,0,0,0,88,215.78C91.24,212.39,92.76,207.26,91.43,204.32Z"/><path class="cls-36" d="M88,215.78A8.9,8.9,0,0,1,84,218.42l-.17,0-.12,0-.28,0-.33,0h-.29a3.15,3.15,0,0,1-3-2,5,5,0,0,1-.43-1.64,7.59,7.59,0,0,0,.74-.39,13.87,13.87,0,0,0,6.29-10.9c0-.3,0-.58,0-.85a4.78,4.78,0,0,1,2.22-.47h.14l.11,0H89a3.14,3.14,0,0,1,2.46,1.95C92.76,207.26,91.24,212.39,88,215.78Z"/><path class="cls-37" d="M88.9,224.67l-1.61-2.45c-.11-.17-.41-.16-.67,0s-.63.42-.94.6l3.25,1.88Z"/><path class="cls-38" d="M96.37,204.33q0,.61-.06,1.26a.44.44,0,0,0,.45.44l2.69.15a.42.42,0,0,1,.2,0Z"/><path class="cls-39" d="M78.71,224a5.4,5.4,0,0,1-1.37-.8.56.56,0,0,0-.7.12l-3.2,2.93a.58.58,0,0,1-.35.16l3.14,1.81,1.94,1.13A.29.29,0,0,1,78,229l1-4.48A.5.5,0,0,0,78.71,224Z"/><path class="cls-40" d="M72.65,226.16l.06,0,.19.11,0,0s-.06-.05-.07-.09l-1.43-3.15a.61.61,0,0,1,0-.38,1,1,0,0,1,.18-.37l3-3.63a1.41,1.41,0,0,0,.27-.55.74.74,0,0,0,0-.25,15,15,0,0,1,0-2.59.43.43,0,0,0-.45-.43l-2.69-.16a.35.35,0,0,1-.37-.45l1.48-5a1,1,0,0,1,.67-.56l2.94-.71a1.27,1.27,0,0,0,.75-.55,27.9,27.9,0,0,1,1.58-2.75,1.13,1.13,0,0,0,.11-.22.58.58,0,0,0,0-.14l0-.14a.64.64,0,0,0,0-.28l-1-3.24a.62.62,0,0,1,0-.37.72.72,0,0,1,.09-.2,1.33,1.33,0,0,1,.14-.19l3.44-3.63a.42.42,0,0,1,.46-.16h0a.2.2,0,0,1,.09.07l1.6,2.45c.11.17.41.16.67,0a14.4,14.4,0,0,1,1.94-1.12,1.53,1.53,0,0,0,.69-.66l1.69-4.56a.37.37,0,0,1,.07-.12.92.92,0,0,1,.43-.31l.08,0,.11,0,3.13-.32h.07l.12,0a.21.21,0,0,1,.11,0,.25.25,0,0,1,.13.31l-1,4.49a.51.51,0,0,0,.32.56,5.09,5.09,0,0,1,1.37.79.56.56,0,0,0,.7-.12l3.2-2.92c.17-.15.34-.2.46-.14L92,190.91a.27.27,0,0,0-.12,0l-1.14-.66h0l-1.25-.72-.5-.29-1.13-.66-.18-.11-.88-.5a.48.48,0,0,0-.31-.06l-3.13.31a.35.35,0,0,0-.14,0l-.14.05-.14.08-.1.09a.57.57,0,0,0-.16.23l-1.7,4.55a.3.3,0,0,1-.06.11.83.83,0,0,1-.12.16l-.16.16,0,0-.14.1-.18.11c-.33.15-.65.33-1,.52L76,192.51l0,0a.3.3,0,0,0-.27,0,.46.46,0,0,0-.19.13h0L73,195.23l-1,1.06a1,1,0,0,0-.15.2,1.6,1.6,0,0,0-.1.23.61.61,0,0,0,0,.26s0,0,0,.06l1,3.24a.91.91,0,0,1,0,.29.44.44,0,0,1,0,.1s0,0,0,0,0,0,0,0a1.09,1.09,0,0,1-.14.31,27.75,27.75,0,0,0-1.58,2.74,1.22,1.22,0,0,1-.74.56l-3,.71a.94.94,0,0,0-.66.55l-1.49,5a.33.33,0,0,0,.12.36l2.27,1.32,1.06.61c0,.46,0,.91.06,1.34v0a.75.75,0,0,1,0,.2,1,1,0,0,1-.07.23,2.46,2.46,0,0,1-.19.32l-3,3.64a1,1,0,0,0-.18.37.75.75,0,0,0,0,.2.47.47,0,0,0,0,.17l1.43,3.15a.24.24,0,0,0,.09.11h0l.9.52c.13.07.28.15.43.25l3.83,2.21.42.24.23.14"/><path class="cls-41" d="M72.65,226.16l.06,0,.19.11,0,0s-.06-.05-.07-.09l-1.43-3.15a.61.61,0,0,1,0-.38,1,1,0,0,1,.18-.37l3-3.63a1.41,1.41,0,0,0,.27-.55.74.74,0,0,0,0-.25,15,15,0,0,1,0-2.59.43.43,0,0,0-.45-.43l-2.69-.16a.35.35,0,0,1-.37-.45l1.48-5a1,1,0,0,1,.67-.56l2.94-.71a1.27,1.27,0,0,0,.75-.55,27.9,27.9,0,0,1,1.58-2.75,1.13,1.13,0,0,0,.11-.22.58.58,0,0,0,0-.14l0-.14a.64.64,0,0,0,0-.28l-1-3.24a.62.62,0,0,1,0-.37.72.72,0,0,1,.09-.2,1.33,1.33,0,0,1,.14-.19l3.44-3.63a.42.42,0,0,1,.46-.16h0a.2.2,0,0,1,.09.07l1.6,2.45c.11.17.41.16.67,0a14.4,14.4,0,0,1,1.94-1.12,1.53,1.53,0,0,0,.69-.66l1.69-4.56a.37.37,0,0,1,.07-.12.92.92,0,0,1,.43-.31l.08,0,.11,0,3.13-.32h.07l.12,0a.21.21,0,0,1,.11,0,.25.25,0,0,1,.13.31l-1,4.49a.51.51,0,0,0,.32.56,5.09,5.09,0,0,1,1.37.79.56.56,0,0,0,.7-.12l3.2-2.92c.17-.15.34-.2.46-.14L92,190.91a.27.27,0,0,0-.12,0l-1.14-.66h0l-1.25-.72-.5-.29-1.13-.66-.18-.11-.88-.5a.48.48,0,0,0-.31-.06l-3.13.31a.35.35,0,0,0-.14,0l-.14.05-.14.08-.1.09a.57.57,0,0,0-.16.23l-1.7,4.55a.3.3,0,0,1-.06.11.83.83,0,0,1-.12.16l-.16.16,0,0-.14.1-.18.11c-.33.15-.65.33-1,.52L76,192.51l0,0a.3.3,0,0,0-.27,0,.46.46,0,0,0-.19.13h0L73,195.23l-1,1.06a1,1,0,0,0-.15.2,1.6,1.6,0,0,0-.1.23.61.61,0,0,0,0,.26s0,0,0,.06l1,3.24a.91.91,0,0,1,0,.29.44.44,0,0,1,0,.1s0,0,0,0,0,0,0,0a1.09,1.09,0,0,1-.14.31,27.75,27.75,0,0,0-1.58,2.74,1.22,1.22,0,0,1-.74.56l-3,.71a.94.94,0,0,0-.66.55l-1.49,5a.33.33,0,0,0,.12.36l2.27,1.32,1.06.61c0,.46,0,.91.06,1.34v0a.75.75,0,0,1,0,.2,1,1,0,0,1-.07.23,2.46,2.46,0,0,1-.19.32l-3,3.64a1,1,0,0,0-.18.37.75.75,0,0,0,0,.2.47.47,0,0,0,0,.17l1.43,3.15a.24.24,0,0,0,.09.11h0l.9.52c.13.07.28.15.43.25l3.83,2.21.42.24.23.14"/><path class="cls-42" d="M88.9,224.67l-1.61-2.45c-.11-.17-.41-.16-.67,0s-.63.42-.94.6l3.25,1.88Z"/><path class="cls-43" d="M96.37,204.33q0,.61-.06,1.26a.44.44,0,0,0,.45.44l2.69.15a.42.42,0,0,1,.2,0Z"/><path class="cls-44" d="M78.71,224a5.4,5.4,0,0,1-1.37-.8.56.56,0,0,0-.7.12l-3.2,2.93a.58.58,0,0,1-.35.16l3.14,1.81,1.94,1.13A.29.29,0,0,1,78,229l1-4.48A.5.5,0,0,0,78.71,224Z"/><path class="cls-45" d="M74.83,218.37a1.45,1.45,0,0,1-.2.34l-3,3.63a1,1,0,0,0-.18.37l-6.33-3.66a1,1,0,0,1,.18-.37l3-3.64a2.46,2.46,0,0,0,.19-.32Z"/><path class="cls-46" d="M74.92,217.91a.92.92,0,0,1-.09.46l-6.33-3.65a1,1,0,0,0,.07-.23.75.75,0,0,0,0-.2v0c0-.43-.06-.87-.06-1.33l3,1.71a.47.47,0,0,0,.28.1l2.69.16a.43.43,0,0,1,.45.43A15,15,0,0,0,74.92,217.91Z"/><path class="cls-47" d="M76.91,207.84a1.05,1.05,0,0,1-.4.19l-2.94.71a1.06,1.06,0,0,0-.54.35l-6.34-3.65a1,1,0,0,1,.33-.28l.22-.08,3-.71a1.2,1.2,0,0,0,.38-.18h0Z"/><path class="cls-48" d="M71.42,214.28a.34.34,0,0,0,.09.35l-3-1.71h0L65.26,211s-.05,0-.05,0a.32.32,0,0,1-.12-.36l1.49-5a.58.58,0,0,1,.1-.19L73,209.09a.6.6,0,0,0-.13.21Z"/><path class="cls-49" d="M71.76,196.72l6.33,3.63a.57.57,0,0,0,0,.36L79,204a.87.87,0,0,1,0,.42l-6.33-3.66s0,0,0,0,0-.07,0-.1a.91.91,0,0,0,0-.29l-1-3.24a.51.51,0,0,1,0-.32"/><path class="cls-50" d="M89.11,192.1a.6.6,0,0,0-.17.23l-1.69,4.56a1.07,1.07,0,0,1-.34.42l-6.33-3.66a1.17,1.17,0,0,0,.28-.32.3.3,0,0,0,.06-.11l1.7-4.55a.57.57,0,0,1,.16-.23Z"/><path class="cls-51" d="M71.42,214.28a.34.34,0,0,0,.09.35l-3-1.71h0L65.26,211s-.05,0-.05,0a.32.32,0,0,1-.12-.36l1.49-5a.58.58,0,0,1,.1-.19L73,209.09a.6.6,0,0,0-.13.21Z"/><path class="cls-48" d="M71.42,214.28a.34.34,0,0,0,.09.35l-3-1.71h0L65.26,211s-.05,0-.05,0a.32.32,0,0,1-.12-.36l1.49-5a.58.58,0,0,1,.1-.19L73,209.09a.6.6,0,0,0-.13.21Z"/><path class="cls-52" d="M66.69,205.44l0,0,0,0Z"/><path class="cls-53" d="M82.27,196.16h0a.42.42,0,0,0-.49.15L78.33,200a1.25,1.25,0,0,0-.24.4l-6.33-3.63a1.09,1.09,0,0,1,.09-.23,1,1,0,0,1,.15-.2l3.44-3.63a.77.77,0,0,1,.19-.14.3.3,0,0,1,.27,0h0l3.29,1.9Z"/><path class="cls-54" d="M82.27,196.16h0a.42.42,0,0,0-.49.15L78.33,200a1.25,1.25,0,0,0-.24.4l-6.33-3.63a1.09,1.09,0,0,1,.09-.23,1,1,0,0,1,.15-.2l3.44-3.63a.77.77,0,0,1,.19-.14.3.3,0,0,1,.27,0h0l3.29,1.9Z"/><path class="cls-55" d="M93,191.59a.5.5,0,0,0-.28-.05l-3.13.32a.87.87,0,0,0-.52.24l-6.33-3.66.1-.09.14-.08.14-.05a.58.58,0,0,1,.14,0l3.13-.31a.48.48,0,0,1,.31.06Z"/><path class="cls-56" d="M93,191.59a.5.5,0,0,0-.28-.05l-3.13.32a.87.87,0,0,0-.52.24l-6.33-3.66.1-.09.14-.08.14-.05a.58.58,0,0,1,.14,0l3.13-.31a.48.48,0,0,1,.31.06Z"/><path class="cls-57" d="M68.36,212.81l.18.1h0Z"/><path class="cls-58" d="M99.65,206.23a.42.42,0,0,0-.2,0L96.76,206a.44.44,0,0,1-.45-.44q.06-.65.06-1.26a11.65,11.65,0,0,0-.05-1.33,1.23,1.23,0,0,1,.29-.79l3-3.64a.78.78,0,0,0,.18-.74l-1.42-3.15a.18.18,0,0,0-.09-.1h0c-.12-.06-.29,0-.46.14l-3.2,2.92a.56.56,0,0,1-.7.12,5.09,5.09,0,0,0-1.37-.79.51.51,0,0,1-.32-.56l1-4.49a.25.25,0,0,0-.13-.31.48.48,0,0,0-.3-.06l-3.13.32a.86.86,0,0,0-.69.47l-1.69,4.56a1.53,1.53,0,0,1-.69.66,14.4,14.4,0,0,0-1.94,1.12c-.26.18-.56.19-.67,0l-1.6-2.45c-.12-.17-.38-.14-.58.08L78.33,200a.91.91,0,0,0-.27.76L79,204a1.06,1.06,0,0,1-.18.78,27.9,27.9,0,0,0-1.58,2.75,1.27,1.27,0,0,1-.75.55l-2.94.71a1,1,0,0,0-.67.56l-1.48,5a.35.35,0,0,0,.37.45l2.69.16a.43.43,0,0,1,.45.43,15,15,0,0,0,0,2.59,1.22,1.22,0,0,1-.29.8l-3,3.63a.85.85,0,0,0-.18.75l1.4,3.13a.14.14,0,0,0,.06.07l0,0h0a.27.27,0,0,0,.12,0,.53.53,0,0,0,.35-.16l3.2-2.93a.56.56,0,0,1,.7-.12,5.4,5.4,0,0,0,1.37.8.5.5,0,0,1,.32.56L78,229a.29.29,0,0,0,.13.31h0a.56.56,0,0,0,.3.05l3.13-.31a.9.9,0,0,0,.69-.48L84,224a1.43,1.43,0,0,1,.68-.67c.33-.15.67-.33,1-.52s.63-.38.94-.6.56-.19.67,0l1.61,2.45a.19.19,0,0,0,.07.08.42.42,0,0,0,.5-.16L92.92,221a.92.92,0,0,0,.26-.75l-1-3.24a1.13,1.13,0,0,1,.18-.79A26.93,26.93,0,0,0,94,213.44a1.24,1.24,0,0,1,.75-.56l2.94-.71a1,1,0,0,0,.67-.55l1.48-5a.33.33,0,0,0-.16-.39A0,0,0,0,0,99.65,206.23ZM88,215.78A8.9,8.9,0,0,1,84,218.42l-.17,0-.12,0-.28,0-.33,0h-.29a3.15,3.15,0,0,1-3-2,5,5,0,0,1-.43-1.64,5.43,5.43,0,0,1,0-.91,14.1,14.1,0,0,1,3.88-8.91,10.67,10.67,0,0,1,2.38-1.92,5.87,5.87,0,0,1,.79-.4,4.78,4.78,0,0,1,2.22-.47h.14l.11,0H89a3.14,3.14,0,0,1,2.46,1.95C92.76,207.26,91.24,212.39,88,215.78Z"/><path class="cls-59" d="M99.65,206.23a.42.42,0,0,0-.2,0L96.76,206a.44.44,0,0,1-.45-.44q.06-.65.06-1.26a11.65,11.65,0,0,0-.05-1.33,1.23,1.23,0,0,1,.29-.79l3-3.64a.78.78,0,0,0,.18-.74l-1.42-3.15a.18.18,0,0,0-.09-.1h0c-.12-.06-.29,0-.46.14l-3.2,2.92a.56.56,0,0,1-.7.12,5.09,5.09,0,0,0-1.37-.79.51.51,0,0,1-.32-.56l1-4.49a.25.25,0,0,0-.13-.31.48.48,0,0,0-.3-.06l-3.13.32a.86.86,0,0,0-.69.47l-1.69,4.56a1.53,1.53,0,0,1-.69.66,14.4,14.4,0,0,0-1.94,1.12c-.26.18-.56.19-.67,0l-1.6-2.45c-.12-.17-.38-.14-.58.08L78.33,200a.91.91,0,0,0-.27.76L79,204a1.06,1.06,0,0,1-.18.78,27.9,27.9,0,0,0-1.58,2.75,1.27,1.27,0,0,1-.75.55l-2.94.71a1,1,0,0,0-.67.56l-1.48,5a.35.35,0,0,0,.37.45l2.69.16a.43.43,0,0,1,.45.43,15,15,0,0,0,0,2.59,1.22,1.22,0,0,1-.29.8l-3,3.63a.85.85,0,0,0-.18.75l1.4,3.13a.14.14,0,0,0,.06.07l0,0h0a.27.27,0,0,0,.12,0,.53.53,0,0,0,.35-.16l3.2-2.93a.56.56,0,0,1,.7-.12,5.4,5.4,0,0,0,1.37.8.5.5,0,0,1,.32.56L78,229a.29.29,0,0,0,.13.31h0a.56.56,0,0,0,.3.05l3.13-.31a.9.9,0,0,0,.69-.48L84,224a1.43,1.43,0,0,1,.68-.67c.33-.15.67-.33,1-.52s.63-.38.94-.6.56-.19.67,0l1.61,2.45a.19.19,0,0,0,.07.08.42.42,0,0,0,.5-.16L92.92,221a.92.92,0,0,0,.26-.75l-1-3.24a1.13,1.13,0,0,1,.18-.79A26.93,26.93,0,0,0,94,213.44a1.24,1.24,0,0,1,.75-.56l2.94-.71a1,1,0,0,0,.67-.55l1.48-5a.33.33,0,0,0-.16-.39A0,0,0,0,0,99.65,206.23ZM88,215.78A8.9,8.9,0,0,1,84,218.42l-.17,0-.12,0-.28,0-.33,0h-.29a3.15,3.15,0,0,1-3-2,5,5,0,0,1-.43-1.64,5.43,5.43,0,0,1,0-.91,14.1,14.1,0,0,1,3.88-8.91,10.67,10.67,0,0,1,2.38-1.92,5.87,5.87,0,0,1,.79-.4,4.78,4.78,0,0,1,2.22-.47h.14l.11,0H89a3.14,3.14,0,0,1,2.46,1.95C92.76,207.26,91.24,212.39,88,215.78Z"/></g></g></g></svg>