<svg xmlns="http://www.w3.org/2000/svg" xmlns:xlink="http://www.w3.org/1999/xlink" viewBox="0 0 101.55 145.85"><defs><style>.cls-1,.cls-2{opacity:0.7;}.cls-1{fill:url(#New_Gradient_Swatch_2);}.cls-2{fill:url(#New_Gradient_Swatch_2-2);}.cls-3{opacity:0.5;fill:url(#New_Gradient_Swatch_2-3);}.cls-4{fill:#fafafa;opacity:0.95;}</style><linearGradient id="New_Gradient_Swatch_2" y1="72.84" x2="100.83" y2="72.84" gradientUnits="userSpaceOnUse"><stop offset="0" stop-color="#ff4420"/><stop offset="1" stop-color="#de4"/></linearGradient><linearGradient id="New_Gradient_Swatch_2-2" x1="4.07" y1="74.1" x2="101.55" y2="74.1" xlink:href="#New_Gradient_Swatch_2"/><linearGradient id="New_Gradient_Swatch_2-3" x1="0.64" y1="29.03" x2="100.83" y2="29.03" xlink:href="#New_Gradient_Swatch_2"/></defs><g id="Layer_2" data-name="Layer 2"><g id="Windows"><g id="Image"><path class="cls-1" d="M100.83,2.44a1.59,1.59,0,0,0-1.44.2L6.23,56.43a4.8,4.8,0,0,0-2.16,3.75V144.3a1.56,1.56,0,0,0,.59,1.38c-.37-.24-3.64-2.09-4-2.33A1.54,1.54,0,0,1,0,142V57.84a4.78,4.78,0,0,1,2.17-3.75L95.32.29A1.53,1.53,0,0,1,96.87.15C97.22.36,100.06,2,100.83,2.44Z"/><path class="cls-2" d="M6.23,56.44,99.39,2.64c1.19-.69,2.16-.13,2.16,1.25V88a4.8,4.8,0,0,1-2.16,3.75L6.23,145.55c-1.19.69-2.16.13-2.16-1.25V60.19A4.8,4.8,0,0,1,6.23,56.44Z"/><path class="cls-3" d="M100.83,2.44c-.77-.47-3.61-2.08-4-2.29a1.53,1.53,0,0,0-1.55.14L2.17,54.09A4.43,4.43,0,0,0,.64,55.71L4.7,58.05a4.43,4.43,0,0,1,1.53-1.62L99.39,2.64A1.59,1.59,0,0,1,100.83,2.44Z"/><path class="cls-4" d="M65,84.34l7.37,10.35L39.13,64.4,4.07,123.81V144.3c0,1.38,1,1.94,2.16,1.25L99.39,91.76A4.8,4.8,0,0,0,101.55,88V76.75L76.74,58.88Z"/><path class="cls-4" d="M69.06,34.54c4.34-2.51,7.86-.48,7.86,4.54A17.4,17.4,0,0,1,69.06,52.7c-4.35,2.51-7.87.48-7.87-4.54A17.35,17.35,0,0,1,69.06,34.54Z"/></g></g></g></svg>