<svg xmlns="http://www.w3.org/2000/svg" viewBox="0 0 101.55 145.85"><defs><style>.cls-1,.cls-2{fill:#3c3e49;}.cls-1{opacity:0.7;}.cls-2{opacity:0.5;}.cls-3{fill:#fafafa;}</style></defs><g id="Layer_2" data-name="Layer 2"><g id="Windows"><g id="Code"><path class="cls-1" d="M6.23,56.44,99.39,2.64c1.19-.69,2.16-.13,2.16,1.25V88a4.8,4.8,0,0,1-2.16,3.75L6.23,145.55c-1.19.69-2.16.13-2.16-1.25V60.19A4.8,4.8,0,0,1,6.23,56.44Z"/><path class="cls-1" d="M4.7,58.05.64,55.71A4.34,4.34,0,0,0,0,57.84V142a1.54,1.54,0,0,0,.62,1.39c.4.24,3.67,2.09,4,2.33a1.56,1.56,0,0,1-.59-1.38V60.18A4.46,4.46,0,0,1,4.7,58.05Z"/><path class="cls-2" d="M100.83,2.44c-.77-.47-3.61-2.08-4-2.29a1.53,1.53,0,0,0-1.55.14L2.17,54.09A4.43,4.43,0,0,0,.64,55.71L4.7,58.05a4.43,4.43,0,0,1,1.53-1.62L99.39,2.64A1.59,1.59,0,0,1,100.83,2.44Z"/><path class="cls-3" d="M19.44,92.44a4.14,4.14,0,0,1,.3-1.66,12,12,0,0,1,.85-1.55l14.8-24a2.42,2.42,0,0,1,.25-.3l.18-.13a.45.45,0,0,1,.59,0,1,1,0,0,1,.24.78v8.32a4.23,4.23,0,0,1-.43,1.89c-.29.57-.57,1.08-.83,1.51L28.44,88.52l7,3.16a5,5,0,0,1,.83.56,1.79,1.79,0,0,1,.43,1.39V102a2.41,2.41,0,0,1-.24,1,1.58,1.58,0,0,1-.59.71.75.75,0,0,1-.18.07.43.43,0,0,1-.25,0l-14.8-6.88a2.31,2.31,0,0,1-.85-.58,2.09,2.09,0,0,1-.3-1.32Z"/><path class="cls-3" d="M56.22,47.81a7.5,7.5,0,0,1,.6-1.58A2.8,2.8,0,0,1,58,45l4.89-2.83a.49.49,0,0,1,.62,0,1.08,1.08,0,0,1,.25.8,2.35,2.35,0,0,1-.08.59l-13.3,56.83a7.4,7.4,0,0,1-.55,1.54,2.84,2.84,0,0,1-1.18,1.29L43.79,106a.47.47,0,0,1-.61,0,1.07,1.07,0,0,1-.26-.79,2.92,2.92,0,0,1,.08-.6Z"/><path class="cls-3" d="M86.18,56.46a4.1,4.1,0,0,1-.3,1.66A10.4,10.4,0,0,1,85,59.68l-14.8,24A1.66,1.66,0,0,1,70,84l-.18.14a.46.46,0,0,1-.59,0,1.06,1.06,0,0,1-.24-.78V75a4.23,4.23,0,0,1,.43-1.89c.29-.58.57-1.08.83-1.52l7-11.18-7-3.16a4.39,4.39,0,0,1-.83-.55A1.79,1.79,0,0,1,69,55.28V47a2.37,2.37,0,0,1,.24-1,1.53,1.53,0,0,1,.59-.71.75.75,0,0,1,.18-.07.52.52,0,0,1,.25,0L85,52a1.61,1.61,0,0,1,1.15,1.89Z"/></g></g></g></svg>