<?xml version="1.0" encoding="utf-8"?>
<!-- Generator: Adobe Illustrator 26.0.1, SVG Export Plug-In . SVG Version: 6.00 Build 0)  -->
<svg version="1.1" id="Layer_1" xmlns="http://www.w3.org/2000/svg" xmlns:xlink="http://www.w3.org/1999/xlink" x="0px" y="0px"
	 viewBox="0 0 80.3 69.6" style="enable-background:new 0 0 80.3 69.6;" xml:space="preserve">
<style type="text/css">
	.st0{fill:#595969;}
</style>
<g id="Layer_2_00000094612725863610853840000002656342069913918387_">
	<g id="laurel_wreath">
		<path class="st0" d="M34,65.2c-13.5,1-25.7-9.3-28.9-24.5c-1.6-7.6-0.6-15.4,2.8-22.4C11,12,16.2,7,22.6,4.2
			c1.1-0.5,2.2-0.9,3.4-1.3c0.5-0.1,0.7-0.5,0.3-0.3C20,4.3,14.5,8,10.3,13C6.3,18.5,4,25.1,3.8,32c-0.6,14.1,7.1,27.3,18.5,32.2
			C26,65.7,30,66.3,34,66V65.2z"/>
		<path class="st0" d="M19.8,69.1l0.5,0.1c0.3,0.1,0.8,0.1,1.4,0.2s1.3,0.1,2,0.1c0.8,0,1.5-0.1,2.3-0.2c0.7-0.1,1.5-0.3,2.2-0.5
			c0.6-0.2,1.2-0.5,1.8-0.8c1-0.7,1.6-1.4,1.5-2.2c-1.6,0.1-3.3,0.3-4.9,0.6c-0.4,0.1-0.7,0.2-1,0.2l-1,0.2
			c-0.6,0.2-1.2,0.3-1.7,0.5s-1,0.4-1.4,0.5c-0.3,0.1-0.7,0.3-1,0.5C20.3,68.8,20.1,68.9,19.8,69.1z"/>
		<path class="st0" d="M13.3,64.9l0.5,0.2c0.3,0.1,0.7,0.3,1.3,0.6c0.6,0.2,1.2,0.4,1.8,0.6c0.3,0.1,0.7,0.2,1,0.3s0.7,0.1,1.1,0.2
			c0.4,0.1,0.7,0.1,1.1,0.1c0.4,0,0.7,0,1,0c0.6,0,1.3-0.1,1.9-0.2c0.5-0.1,0.9-0.4,1.3-0.7c0.3-0.2,0.5-0.6,0.5-1
			c-1.5-0.3-3.1-0.6-4.7-0.7c-0.7-0.1-1.3-0.1-1.9-0.1h-0.9c-0.3,0-0.5,0-0.8,0c-0.8,0.1-1.6,0.2-2.4,0.3
			C13.9,64.7,13.6,64.8,13.3,64.9z"/>
		<path class="st0" d="M7.9,59.2l0.4,0.3c0.2,0.2,0.6,0.5,1.1,0.8c0.5,0.4,1,0.7,1.6,1c0.6,0.4,1.2,0.7,1.9,1c0.3,0.2,0.6,0.3,1,0.4
			s0.6,0.2,1,0.3c0.6,0.1,1.2,0.2,1.7,0.2c0.4,0,0.9-0.1,1.3-0.2c0.3-0.1,0.6-0.4,0.7-0.8c-1.3-0.7-2.7-1.3-4.2-1.9
			c-1.1-0.4-2.2-0.7-3.3-1c-0.4-0.1-0.9-0.2-1.3-0.2c-0.4,0-0.7-0.1-1-0.1C8.4,59.2,8.2,59.2,7.9,59.2z"/>
		<path class="st0" d="M3.8,52.3l0.3,0.4c0.2,0.3,0.5,0.6,0.8,1c0.2,0.2,0.4,0.4,0.6,0.7L6.1,55c0.5,0.5,1,0.9,1.5,1.3
			c0.5,0.4,1.1,0.8,1.6,1.1c0.5,0.3,1,0.5,1.6,0.7c1,0.3,1.7,0.2,2-0.4c-1.1-1-2.3-1.9-3.5-2.8c-0.5-0.4-1-0.7-1.5-1
			S7,53.4,6.5,53.2c-0.6-0.3-1.3-0.6-2-0.8C4.3,52.3,4,52.3,3.8,52.3z"/>
		<path class="st0" d="M1.1,44.5l0,0.1c0,0.1,0,0.2,0.1,0.3c0.1,0.3,0.3,0.7,0.6,1.1s0.6,1,0.9,1.5s0.8,1.1,1.2,1.6
			c0.4,0.5,0.8,1,1.3,1.4c0.4,0.4,0.8,0.7,1.3,1c0.8,0.5,1.5,0.6,1.9,0.2c-0.8-1.2-1.7-2.4-2.6-3.5C5.4,47.9,5,47.4,4.5,47
			c-0.3-0.4-0.7-0.7-1.1-1c-0.5-0.5-1.1-0.9-1.7-1.2l-0.5-0.3L1.1,44.5z"/>
		<path class="st0" d="M0,36.2l0.1,0.5c0.1,0.3,0.1,0.7,0.3,1.2s0.3,1,0.5,1.6s0.5,1.2,0.8,1.8c0.5,1.1,1.1,2,1.9,2.9
			c0.7,0.7,1.3,1,1.7,0.6C5.1,44.4,5,44,4.8,43.7s-0.3-0.7-0.4-1c-0.3-0.6-0.6-1.2-0.9-1.8c-0.5-0.9-1.1-1.8-1.7-2.6
			c-0.3-0.3-0.5-0.6-0.7-0.9s-0.4-0.5-0.6-0.6C0.4,36.5,0.2,36.4,0,36.2z"/>
		<path class="st0" d="M0.6,28c0,0,0,0.1,0,0.4s0,0.7,0.1,1.1s0.1,1,0.2,1.6C0.9,31.5,0.9,31.8,1,32s0.1,0.6,0.2,0.9
			s0.1,0.6,0.2,0.9s0.2,0.6,0.3,0.8c0.2,0.5,0.4,0.9,0.6,1.3c0.5,0.8,1,1.2,1.4,1c-0.3-2.3-0.9-4.6-1.9-6.7
			c-0.3-0.6-0.6-1.2-0.9-1.7l-0.3-0.4L0.6,28z"/>
		<path class="st0" d="M2.7,20.1c0,0-0.1,0.6-0.2,1.4c0,0.4-0.1,1-0.1,1.5s0,1.1,0,1.7c0,1,0.2,2.1,0.5,3.1c0.1,0.4,0.2,0.7,0.5,1
			c0.1,0.2,0.4,0.3,0.6,0.3c0-0.7,0.1-1.4,0.1-2s0-1.2-0.1-1.8s-0.1-1-0.2-1.5c-0.1-0.4-0.1-0.9-0.2-1.3C3.4,22,3.2,21.4,3,20.8
			C2.9,20.5,2.8,20.3,2.7,20.1z"/>
		<path class="st0" d="M6.3,13.1l-0.1,0.3C6.1,13.7,6,14,5.8,14.3s-0.3,0.8-0.4,1.3s-0.2,1-0.3,1.5c-0.1,0.5-0.1,1-0.2,1.5
			c0,0.5,0,0.9,0,1.4c0.1,0.8,0.3,1.4,0.7,1.5c0.6-1.9,0.9-4,0.9-6c0-0.6-0.1-1.2-0.2-1.7C6.4,13.5,6.3,13.3,6.3,13.1z"/>
		<path class="st0" d="M11.1,7.2l-0.2,0.3c-0.1,0.2-0.3,0.4-0.4,0.7C10.1,9,9.7,9.8,9.3,10.6C9.2,11,9,11.5,8.9,11.9
			c-0.1,0.4-0.2,0.8-0.2,1.2c-0.1,0.7,0,1.3,0.4,1.5c0.9-1.6,1.6-3.4,1.9-5.2c0.1-0.5,0.2-1.1,0.2-1.6C11.1,7.6,11.1,7.4,11.1,7.2z"
			/>
		<path class="st0" d="M16.9,2.8c0,0-0.3,0.3-0.7,0.8C16,3.8,15.7,4,15.5,4.3S15,5,14.8,5.3s-0.5,0.7-0.6,1.1
			c-0.2,0.3-0.3,0.7-0.4,1c-0.2,0.6-0.2,1.1,0,1.4c1.1-1.2,2.1-2.6,2.7-4.1C16.6,4.1,16.8,3.4,16.9,2.8z"/>
		<path class="st0" d="M23.4,0c0,0-0.3,0.2-0.8,0.5c-0.6,0.4-1.1,0.8-1.6,1.2c-0.3,0.2-0.5,0.5-0.8,0.8C20,2.7,19.8,3,19.6,3.3
			c-0.3,0.5-0.4,1-0.2,1.3c0.4-0.2,0.7-0.5,1-0.8c0.3-0.2,0.6-0.5,0.9-0.8c0.3-0.3,0.5-0.5,0.7-0.8s0.4-0.5,0.5-0.7
			c0.2-0.4,0.4-0.7,0.6-1.1C23.3,0.3,23.4,0.2,23.4,0z"/>
		<path class="st0" d="M23.6,57.7l0.3,0.3l0.8,0.7l1.2,1c0.5,0.3,1,0.7,1.5,1.1s1,0.7,1.5,1.1c0.5,0.3,0.9,0.7,1.4,1.1
			c0.8,0.7,1.4,1.5,1.2,2.2c-1.6-0.1-3.1-0.7-4.4-1.6c-0.3-0.2-0.5-0.4-0.8-0.6s-0.5-0.5-0.6-0.7c-0.4-0.4-0.7-0.8-1-1.3
			c-0.2-0.4-0.4-0.8-0.6-1.2c-0.1-0.3-0.2-0.7-0.3-1C23.7,58.4,23.6,58,23.6,57.7z"/>
		<path class="st0" d="M19,55.2l0.9,1.2c0.3,0.3,0.6,0.8,1,1.2l0.6,0.7c0.2,0.2,0.4,0.5,0.6,0.7s0.4,0.5,0.6,0.7s0.4,0.5,0.6,0.7
			c0.4,0.4,0.8,0.9,1.1,1.4c0.3,0.4,0.5,0.8,0.7,1.2c0.1,0.4,0.1,0.8,0,1.1c-2.1-0.7-3.8-2.2-4.9-4.1c-0.1-0.3-0.3-0.5-0.4-0.8
			c-0.1-0.2-0.2-0.5-0.3-0.7c-0.3-0.8-0.4-1.6-0.5-2.4C19,55.8,19,55.5,19,55.2z"/>
		<path class="st0" d="M15,51.6l0.2,0.3c0.1,0.2,0.2,0.6,0.4,1s0.4,0.9,0.7,1.3s0.5,1,0.8,1.6c0.1,0.3,0.3,0.5,0.4,0.8l0.4,0.8
			c0.3,0.5,0.5,1.1,0.7,1.5c0.2,0.4,0.3,0.9,0.4,1.3c0.1,0.3,0,0.7-0.2,1c-1.2-0.9-2.3-2.1-3-3.4c-0.5-1-0.9-2.1-1-3.3
			c-0.1-0.4-0.1-0.9-0.1-1.3c0-0.3,0-0.7,0.1-1C14.9,52.1,14.9,51.9,15,51.6z"/>
		<path class="st0" d="M11.8,46.9c0,0,0,0.1,0.1,0.4s0.1,0.6,0.2,1c0.1,0.2,0.1,0.4,0.2,0.7l0.2,0.8c0.1,0.5,0.3,1.1,0.4,1.7
			s0.3,1.2,0.5,1.7c0.1,0.5,0.3,1.1,0.4,1.6c0.2,1,0.2,1.8-0.3,2.2c-1-1.2-1.7-2.5-2.1-4c-0.2-0.6-0.3-1.2-0.3-1.8c0-0.5,0-1,0-1.5
			c0-0.7,0.2-1.4,0.4-2.1C11.6,47.4,11.7,47.1,11.8,46.9z"/>
		<path class="st0" d="M9.5,41.5C9.5,41.5,9.5,41.6,9.5,41.5c0,0.2,0,0.3,0,0.4s0,0.6,0,1s0.1,0.9,0.1,1.4s0.1,1.1,0.1,1.7
			s0.1,1.2,0.1,1.7c0,0.5,0,1,0,1.6c0,1-0.2,1.7-0.7,2c-0.6-1.3-1-2.8-1.1-4.2c0-0.6,0-1.1,0-1.7c0.1-0.5,0.2-0.9,0.3-1.4
			c0.2-0.6,0.5-1.3,0.8-1.8c0.1-0.2,0.2-0.3,0.3-0.5L9.5,41.5z"/>
		<path class="st0" d="M8.4,35.6c0,0-0.1,0.5-0.2,1.3c-0.1,0.4-0.1,0.8-0.2,1.3s-0.2,1-0.2,1.5c-0.1,1-0.3,2-0.5,3
			c-0.2,0.9-0.5,1.5-1,1.6C6.1,44,6.1,43.6,6,43.2c-0.1-0.4-0.1-0.7-0.1-1.1c0-0.6,0-1.3,0.1-1.9c0.2-1.3,0.6-2.6,1.4-3.7
			c0.2-0.2,0.4-0.4,0.5-0.6C8.1,35.9,8.2,35.7,8.4,35.6z"/>
		<path class="st0" d="M8.4,29.5c0,0,0,0.1-0.1,0.3L8,30.6c-0.1,0.3-0.3,0.7-0.4,1.2c-0.1,0.2-0.2,0.4-0.2,0.7l-0.2,0.7
			c-0.2,0.5-0.3,0.9-0.5,1.4S6.2,35.4,6,35.8c-0.4,0.7-0.8,1.2-1.3,1.2c0-0.7,0-1.4,0.2-2.1C5,34.5,5,34.2,5.1,34
			c0.1-0.3,0.2-0.5,0.2-0.8c0.3-0.8,0.7-1.6,1.3-2.3C7,30.4,7.4,30,7.9,29.7c0.1-0.1,0.3-0.2,0.4-0.2L8.4,29.5z"/>
		<path class="st0" d="M9.7,23.5l-0.6,0.9c-0.2,0.3-0.4,0.6-0.6,1s-0.4,0.7-0.7,1.1c-0.4,0.7-0.9,1.5-1.5,2.1
			c-0.2,0.3-0.4,0.5-0.7,0.6c-0.2,0.1-0.4,0.2-0.7,0.1c0.1-0.6,0.3-1.2,0.5-1.9c0.2-0.5,0.4-1,0.7-1.4C6.4,25.7,6.7,25.3,7,25
			c0.2-0.3,0.5-0.5,0.8-0.7c0.4-0.3,0.9-0.5,1.3-0.7C9.3,23.5,9.5,23.5,9.7,23.5z"/>
		<path class="st0" d="M12.1,17.9l-2.3,2.3c-0.3,0.3-0.6,0.6-0.9,0.9c-0.3,0.3-0.6,0.5-0.9,0.7c-0.6,0.4-1,0.6-1.4,0.3
			c0.2-0.5,0.5-1,0.8-1.5c0.3-0.4,0.6-0.8,0.9-1.1c0.5-0.5,1.1-0.9,1.8-1.2c0.4-0.2,0.9-0.3,1.3-0.3C11.7,17.8,11.9,17.8,12.1,17.9z
			"/>
		<path class="st0" d="M15.6,13l-0.2,0.1c-0.1,0.1-0.3,0.2-0.5,0.3c-0.5,0.3-1.1,0.7-1.7,1c-0.3,0.2-0.6,0.4-0.9,0.6
			c-0.3,0.2-0.6,0.3-0.9,0.4c-0.2,0.1-0.5,0.2-0.8,0.2c-0.2,0-0.4-0.1-0.5-0.2c0.9-1.4,2.3-2.3,3.9-2.6c0.4-0.1,0.8-0.1,1.3,0
			C15.3,12.9,15.4,12.9,15.6,13z"/>
		<path class="st0" d="M19.9,9.1c0,0-0.3,0.1-0.8,0.2l-0.8,0.2l-0.9,0.3c-0.3,0.1-0.7,0.2-1,0.2c-0.3,0.1-0.6,0.1-0.9,0.2
			c-0.5,0-1-0.1-1.1-0.4c1.1-1,2.5-1.5,3.9-1.3C18.9,8.6,19.5,8.8,19.9,9.1z"/>
		<path class="st0" d="M25,6.5c0,0-0.3,0-0.7,0h-0.8h-0.9c-0.3,0-0.6,0-0.9,0c-0.3,0-0.5,0-0.8-0.1c-0.5-0.1-0.9-0.3-0.9-0.6
			c0.4-0.2,0.8-0.3,1.1-0.4c0.3-0.1,0.7-0.1,1-0.1c0.3,0,0.6,0,0.9,0.1c0.2,0.1,0.5,0.1,0.7,0.2c0.3,0.1,0.7,0.3,0.9,0.6
			C24.8,6.3,24.9,6.4,25,6.5z"/>
		<path class="st0" d="M31.6,2.1L30.5,2c-0.3,0-0.7,0-1.1-0.1h-0.7L28,2c-0.2,0-0.5,0-0.7,0.1l-0.7,0.1c-0.5,0.1-1,0.2-1.4,0.4
			c-0.4,0.1-0.8,0.3-1.2,0.5c-0.2,0.1-0.3,0.2-0.5,0.3c-0.1,0.1-0.3,0.2-0.4,0.4c0.4,0,0.7,0,1.1,0c0.4,0,0.8-0.1,1.3-0.2
			c0.2,0,0.5-0.1,0.7-0.2l0.7-0.2l0.7-0.2l0.7-0.2l0.7-0.2l0.6-0.1c0.4-0.1,0.8-0.2,1.1-0.2L31.6,2.1z"/>
		<path class="st0" d="M46.3,65.2c13.5,1,25.7-9.3,28.8-24.5c1.6-7.6,0.6-15.4-2.7-22.4C69.3,12,64.1,7,57.7,4.2
			c-1.1-0.5-2.2-0.9-3.3-1.3c-0.5-0.1-0.7-0.5-0.3-0.3C60.3,4.3,65.9,8,70,13c4.1,5.5,6.4,12.1,6.6,19c0.6,14.1-7.1,27.3-18.5,32.2
			c-3.7,1.5-7.8,2.2-11.8,1.8V65.2z"/>
		<path class="st0" d="M60.5,69.1L60,69.2c-0.3,0.1-0.8,0.1-1.4,0.2s-1.3,0.1-2,0.1c-0.8,0-1.5-0.1-2.3-0.2
			c-0.8-0.1-1.5-0.2-2.2-0.4c-0.6-0.2-1.2-0.5-1.8-0.8c-1-0.7-1.6-1.4-1.5-2.2c1.6,0.1,3.3,0.3,4.9,0.6l1,0.2l1,0.2
			c0.6,0.2,1.2,0.3,1.7,0.5s1,0.4,1.3,0.5c0.3,0.1,0.7,0.3,1,0.5C59.9,68.8,60.2,69,60.5,69.1z"/>
		<path class="st0" d="M67,64.9l-0.5,0.2c-0.3,0.1-0.7,0.3-1.3,0.6c-0.6,0.2-1.2,0.4-1.8,0.6c-0.3,0.1-0.7,0.2-1,0.3
			s-0.7,0.1-1.1,0.2c-0.4,0.1-0.7,0.1-1.1,0.1c-0.4,0-0.7,0-1,0c-0.6,0-1.2-0.1-1.8-0.3c-0.5-0.1-1-0.3-1.4-0.6
			c-0.3-0.2-0.5-0.6-0.5-1c1.5-0.3,3.1-0.6,4.7-0.7c0.7-0.1,1.3-0.1,1.9-0.1h0.9c0.3,0,0.5,0,0.8,0c0.8,0.1,1.6,0.2,2.4,0.3
			C66.4,64.7,66.7,64.8,67,64.9z"/>
		<path class="st0" d="M72.4,59.2L72,59.5c-0.2,0.2-0.6,0.5-1.1,0.8c-0.5,0.4-1,0.7-1.6,1c-0.6,0.4-1.2,0.7-1.9,1
			c-0.3,0.2-0.7,0.3-1,0.4s-0.6,0.2-1,0.3c-0.6,0.1-1.2,0.2-1.8,0.2c-0.4,0-0.8-0.1-1.2-0.3c-0.3-0.1-0.6-0.4-0.7-0.8
			c1.3-0.7,2.7-1.3,4.2-1.9c1.1-0.4,2.2-0.7,3.3-0.9c0.4-0.1,0.9-0.2,1.3-0.2c0.4,0,0.7-0.1,1-0.1C71.8,59.2,72.1,59.2,72.4,59.2z"
			/>
		<path class="st0" d="M76.5,52.3l-0.3,0.4c-0.2,0.3-0.5,0.6-0.8,1c-0.2,0.2-0.4,0.4-0.6,0.7L74.2,55c-0.5,0.5-1,0.9-1.5,1.3
			c-0.5,0.4-1.1,0.8-1.6,1.1c-0.5,0.3-1,0.5-1.6,0.7c-1,0.3-1.7,0.2-2-0.4c1.1-1,2.3-1.9,3.5-2.8c0.5-0.4,1-0.7,1.5-1
			s0.9-0.5,1.3-0.7c0.6-0.3,1.3-0.6,2-0.8C76,52.3,76.3,52.3,76.5,52.3z"/>
		<path class="st0" d="M79.2,44.5v0.1c0,0.1,0,0.2-0.2,0.3c-0.1,0.3-0.3,0.7-0.6,1.1s-0.6,1-0.9,1.5s-0.7,1.1-1.1,1.6
			c-0.4,0.5-0.8,1-1.3,1.4c-0.4,0.4-0.8,0.7-1.3,1c-0.8,0.5-1.5,0.6-1.9,0.2c0.8-1.2,1.7-2.4,2.6-3.5c0.4-0.4,0.8-0.9,1.2-1.3
			c0.3-0.4,0.7-0.7,1.1-1c0.5-0.5,1.1-0.9,1.7-1.2l0.5-0.3L79.2,44.5z"/>
		<path class="st0" d="M80.3,36.2l-0.1,0.5c-0.1,0.3-0.2,0.7-0.3,1.2s-0.3,1-0.5,1.6s-0.5,1.2-0.8,1.8c-0.5,1.1-1.1,2-1.9,2.9
			c-0.7,0.7-1.3,1-1.7,0.6c0.1-0.4,0.3-0.7,0.4-1.1s0.3-0.7,0.4-1c0.3-0.6,0.6-1.2,0.9-1.8c0.5-0.9,1-1.8,1.7-2.6
			c0.3-0.3,0.5-0.6,0.7-0.9s0.4-0.5,0.6-0.6C79.9,36.5,80.1,36.4,80.3,36.2z"/>
		<path class="st0" d="M79.7,28c0,0,0,0.1,0,0.4s0,0.7-0.1,1.1s-0.1,1-0.2,1.6c0,0.3-0.1,0.6-0.2,0.9s-0.1,0.6-0.2,0.9
			s-0.2,0.6-0.2,0.9s-0.2,0.6-0.3,0.8c-0.2,0.5-0.4,0.9-0.6,1.3c-0.5,0.8-1,1.2-1.4,1c0.3-2.3,0.9-4.6,1.9-6.8
			c0.3-0.6,0.6-1.2,0.9-1.7C79.5,28.3,79.6,28.2,79.7,28L79.7,28z"/>
		<path class="st0" d="M77.6,20.1c0,0,0.1,0.6,0.2,1.4c0,0.4,0.1,1,0.1,1.5s0,1.1,0,1.7c0,1-0.2,2.1-0.5,3.1c-0.1,0.4-0.2,0.7-0.5,1
			c-0.1,0.2-0.4,0.3-0.6,0.3c-0.1-0.7-0.1-1.4-0.1-2s0-1.2,0.1-1.8s0.1-1,0.2-1.5c0.1-0.4,0.1-0.9,0.2-1.3c0.1-0.6,0.3-1.2,0.5-1.8
			C77.4,20.6,77.5,20.3,77.6,20.1z"/>
		<path class="st0" d="M74,13.1l0.1,0.3c0.1,0.2,0.2,0.5,0.3,0.9s0.3,0.8,0.4,1.3s0.2,1,0.3,1.5c0.1,0.5,0.1,1,0.2,1.5
			c0,0.5,0,0.9,0,1.4c-0.1,0.8-0.3,1.4-0.7,1.5c-0.6-1.9-0.9-4-0.9-6c0-0.6,0.1-1.2,0.2-1.7C73.9,13.5,73.9,13.3,74,13.1z"/>
		<path class="st0" d="M69.2,7.2l0.2,0.3c0.1,0.2,0.3,0.4,0.4,0.7c0.5,0.8,0.9,1.5,1.2,2.3c0.2,0.4,0.3,0.9,0.4,1.3
			c0.1,0.4,0.2,0.8,0.2,1.2c0.1,0.7,0,1.3-0.4,1.5c-0.9-1.6-1.6-3.4-1.9-5.2c-0.1-0.5-0.2-1.1-0.2-1.6C69.2,7.6,69.2,7.4,69.2,7.2z"
			/>
		<path class="st0" d="M63.4,2.8c0,0,0.3,0.3,0.7,0.8c0.2,0.2,0.4,0.5,0.7,0.8s0.5,0.6,0.7,1s0.5,0.7,0.7,1.1c0.2,0.3,0.3,0.7,0.4,1
			c0.2,0.6,0.2,1.1,0,1.4c-1.1-1.2-2-2.6-2.7-4.1C63.7,4.1,63.5,3.4,63.4,2.8z"/>
		<path class="st0" d="M56.9,0c0,0,0.3,0.2,0.8,0.5c0.6,0.4,1.1,0.8,1.6,1.2C59.5,2,59.8,2.2,60,2.5c0.2,0.3,0.4,0.5,0.6,0.8
			c0.3,0.5,0.4,1,0.2,1.3c-0.4-0.2-0.7-0.5-1-0.8c-0.3-0.2-0.6-0.5-0.9-0.8c-0.2-0.3-0.5-0.5-0.7-0.8s-0.4-0.5-0.5-0.7
			c-0.2-0.4-0.4-0.7-0.6-1.1C57,0.3,56.9,0.2,56.9,0z"/>
		<path class="st0" d="M56.7,57.7L56.4,58l-0.8,0.7l-1.2,1c-0.5,0.3-1,0.7-1.5,1.1s-1,0.7-1.5,1.1c-0.5,0.3-0.9,0.7-1.4,1.1
			c-0.8,0.7-1.4,1.5-1.2,2.2c1.6-0.1,3.1-0.7,4.4-1.6c0.3-0.2,0.5-0.4,0.8-0.6c0.2-0.2,0.5-0.5,0.7-0.7c0.4-0.4,0.7-0.8,1-1.3
			c0.2-0.4,0.4-0.8,0.6-1.2c0.1-0.3,0.2-0.7,0.3-1C56.6,58.4,56.7,58,56.7,57.7z"/>
		<path class="st0" d="M61.3,55.2l-0.9,1.2c-0.3,0.3-0.6,0.8-1,1.2l-0.6,0.7c-0.2,0.2-0.4,0.5-0.6,0.7c-0.2,0.2-0.4,0.5-0.6,0.7
			s-0.4,0.5-0.6,0.7c-0.4,0.4-0.8,0.9-1.1,1.4c-0.3,0.4-0.5,0.8-0.6,1.2c-0.1,0.4-0.1,0.8,0,1.1c2.1-0.8,3.8-2.2,4.9-4.1
			c0.1-0.3,0.3-0.5,0.4-0.8c0.1-0.2,0.2-0.5,0.3-0.7c0.3-0.8,0.4-1.5,0.5-2.3C61.3,55.9,61.3,55.6,61.3,55.2z"/>
		<path class="st0" d="M65.3,51.6l-0.2,0.3c-0.1,0.2-0.2,0.6-0.4,1s-0.4,0.9-0.7,1.3s-0.5,1-0.8,1.6c-0.1,0.3-0.3,0.5-0.4,0.8
			s-0.3,0.5-0.4,0.8c-0.3,0.5-0.5,1.1-0.7,1.5c-0.2,0.4-0.3,0.9-0.4,1.3c-0.1,0.3,0,0.7,0.2,1c1.2-0.9,2.3-2.1,3-3.4
			c0.5-1,0.9-2.1,1-3.3c0-0.4,0.1-0.9,0.1-1.3c0-0.3,0-0.7-0.1-1C65.4,52.1,65.3,51.9,65.3,51.6z"/>
		<path class="st0" d="M68.5,46.9c0,0,0,0.1-0.1,0.4s-0.1,0.6-0.2,1c-0.1,0.2-0.1,0.4-0.2,0.7l-0.2,0.8c-0.1,0.5-0.3,1.1-0.4,1.7
			s-0.3,1.2-0.5,1.7c-0.1,0.5-0.3,1.1-0.4,1.6c-0.2,1-0.2,1.8,0.3,2.2c1-1.2,1.7-2.5,2.1-4c0.2-0.6,0.3-1.2,0.3-1.8c0-0.5,0-1,0-1.5
			c0-0.7-0.2-1.4-0.4-2.1C68.7,47.4,68.6,47.2,68.5,46.9z"/>
		<path class="st0" d="M70.8,41.5L70.8,41.5c0,0.2,0,0.3,0,0.4s0,0.6,0,1s-0.1,0.9-0.1,1.4s-0.1,1.1-0.1,1.7s-0.1,1.2-0.1,1.7
			c0,0.5,0,1,0,1.6c0,1,0.2,1.7,0.7,2c0.6-1.3,1-2.8,1.1-4.2c0-0.6,0-1.1,0-1.7c-0.1-0.5-0.2-0.9-0.3-1.4c-0.2-0.6-0.4-1.3-0.8-1.8
			c-0.1-0.2-0.2-0.3-0.3-0.5L70.8,41.5z"/>
		<path class="st0" d="M71.9,35.6c0,0,0.1,0.5,0.2,1.3c0.1,0.4,0.1,0.8,0.2,1.3s0.1,1,0.2,1.5c0.1,1,0.3,2,0.5,3
			c0.2,0.9,0.5,1.5,1,1.6c0.1-0.4,0.2-0.8,0.2-1.1c0.1-0.4,0.1-0.7,0.1-1.1c0-0.6,0-1.3-0.1-1.9c-0.2-1.3-0.6-2.6-1.4-3.7
			c-0.2-0.2-0.4-0.4-0.5-0.6C72.2,35.8,72,35.7,71.9,35.6z"/>
		<path class="st0" d="M71.8,29.5c0,0,0.1,0.1,0.1,0.3l0.3,0.8c0.1,0.3,0.3,0.7,0.4,1.2c0.1,0.2,0.2,0.4,0.2,0.7l0.2,0.7
			c0.2,0.5,0.3,0.9,0.5,1.4s0.4,0.9,0.5,1.2c0.4,0.7,0.8,1.2,1.3,1.2c0-0.7,0-1.4-0.2-2.1c0-0.3-0.1-0.6-0.2-0.9
			c-0.1-0.3-0.2-0.5-0.2-0.8c-0.3-0.8-0.7-1.6-1.3-2.3c-0.4-0.4-0.8-0.8-1.2-1.1c-0.1-0.1-0.3-0.2-0.4-0.2L71.8,29.5z"/>
		<path class="st0" d="M70.6,23.5c0,0,0.2,0.4,0.6,0.9l0.6,1c0.2,0.4,0.4,0.7,0.7,1.1c0.5,0.7,1,1.4,1.5,2.1
			c0.2,0.3,0.4,0.5,0.7,0.6c0.2,0.1,0.4,0.2,0.7,0.1c-0.1-0.6-0.3-1.2-0.5-1.9c-0.2-0.5-0.4-1-0.7-1.4c-0.3-0.4-0.5-0.7-0.8-1.1
			c-0.2-0.3-0.5-0.5-0.8-0.7c-0.4-0.3-0.9-0.5-1.3-0.7C71,23.5,70.8,23.5,70.6,23.5z"/>
		<path class="st0" d="M68.2,17.9l2.3,2.3c0.3,0.3,0.6,0.6,0.9,0.9c0.3,0.3,0.6,0.5,0.8,0.7c0.6,0.4,1,0.6,1.4,0.3
			c-0.2-0.5-0.5-1-0.8-1.5c-0.3-0.4-0.6-0.8-0.9-1.1c-0.5-0.5-1.2-0.9-1.8-1.2c-0.4-0.2-0.9-0.3-1.3-0.3
			C68.5,17.8,68.4,17.9,68.2,17.9z"/>
		<path class="st0" d="M64.7,13l0.2,0.1l0.5,0.3c0.5,0.3,1.1,0.7,1.7,1c0.3,0.2,0.6,0.4,1,0.6c0.3,0.2,0.6,0.3,0.9,0.4
			c0.2,0.1,0.5,0.2,0.8,0.2c0.2,0,0.4-0.1,0.5-0.2c-0.9-1.4-2.3-2.3-3.9-2.6c-0.4-0.1-0.8-0.1-1.3,0C65.1,12.9,64.9,12.9,64.7,13z"
			/>
		<path class="st0" d="M60.4,9.1c0,0,0.3,0.1,0.8,0.2l0.8,0.2l0.9,0.3c0.3,0.1,0.7,0.2,1,0.2c0.3,0.1,0.6,0.1,0.9,0.2
			c0.5,0,1-0.1,1.1-0.4c-1.1-1-2.5-1.5-4-1.3C61.4,8.7,60.8,8.8,60.4,9.1z"/>
		<path class="st0" d="M55.3,6.5c0,0,0.3,0,0.7,0h0.8h0.9c0.3,0,0.6,0,0.9,0c0.3,0,0.5,0,0.8-0.1c0.5-0.1,0.8-0.3,0.9-0.6
			c-0.4-0.2-0.8-0.3-1.1-0.4c-0.3-0.1-0.7-0.1-1-0.1c-0.3,0-0.6,0-0.9,0.1c-0.2,0.1-0.5,0.1-0.7,0.2c-0.3,0.1-0.7,0.3-0.9,0.6
			C55.5,6.3,55.4,6.4,55.3,6.5z"/>
		<path class="st0" d="M48.7,2.1L49.8,2c0.3,0,0.7,0,1.2-0.1h0.7l0.7,0L53,2l0.7,0.1c0.5,0.1,1,0.2,1.4,0.4c0.4,0.1,0.8,0.3,1.2,0.5
			c0.2,0.1,0.3,0.2,0.5,0.3c0.1,0.1,0.3,0.2,0.4,0.4c-0.4,0-0.7,0-1.1,0c-0.4,0-0.8-0.1-1.3-0.2c-0.2,0-0.5-0.1-0.7-0.2l-0.7-0.2
			L52.8,3l-0.7-0.2l-0.7-0.2l-0.6-0.1c-0.4-0.1-0.8-0.2-1.1-0.2L48.7,2.1z"/>
	</g>
</g>
</svg>
